<?xml version="1.0" encoding="UTF-8"?>
<svg id="icons" xmlns="http://www.w3.org/2000/svg" version="1.1" viewBox="0 0 39.56 29.04">
  <!-- Generator: Adobe Illustrator 29.1.0, SVG Export Plug-In . SVG Version: 2.1.0 Build 142)  -->
  <defs>
    <style>
      .st0 {
        stroke-linecap: round;
      }

      .st0, .st1 {
        fill: none;
        stroke: #fff;
        stroke-linejoin: round;
        stroke-width: .93px;
      }

      .st2 {
        fill: #fff;
        opacity: .1;
      }
    </style>
  </defs>
  <path class="st2" d="M0,14.79C0,6.91,6.38.53,14.26.53s14.26,6.38,14.26,14.26-6.38,14.26-14.26,14.26S0,22.66,0,14.79"/>
  <g>
    <path class="st1" d="M26.93,5.69h-6.96M26.93,3.41h-6.96M39.1,23.42v-.61c0-2.3-2.19-3.61-4.9-3.61s-4.9,1.31-4.9,3.61v.61M21.92,10.43c.19-.34.33-.79.2-1.27-.24-.86-1.21-1.48-2.98-1.9-1.87-.43-2.15-1.75-2.15-2.49,0-2.38,2.84-4.31,6.33-4.31,2.12,0,4.09.72,5.27,1.92.7.71,1.07,1.54,1.06,2.39-.04,3.28-5.69,5.11-7.73,5.66ZM23.91,10.82c1.52,1.72,4.45,2.49,5.59,2.4,0,0-.51-.74-.39-1.18.08-.29.44-.7,1.73-1,1.64-.38,1.82-1.62,1.82-2.14,0-1.14-.8-2.15-2.02-2.77"/>
    <path class="st0" d="M37.04,14.86c0,1.55-1.26,2.81-2.81,2.81s-2.81-1.26-2.81-2.81,1.26-2.81,2.81-2.81,2.81,1.26,2.81,2.81Z"/>
    <path class="st1" d="M21.16,23.4v-1.5M12.71,23.4v-1.5M19.01,17l-1.77,2.8c-.07.11-.19.18-.32.18s-.25-.07-.32-.18l-1.77-2.8c-.74-.61-1.21-1.53-1.21-2.56,0-.17.02-.34.04-.5.81-.37,1.95-.75,3.26-.75s2.43.4,3.26.78c.02.16.04.31.04.47,0,1.03-.47,1.95-1.21,2.56ZM25.03,23.4c-.12-1.72-.38-2.7-.56-3.69-.41-2.32-1.67-3.48-3.27-4.03.32-.5.38-1.1.38-1.1,0-3.03-3.03-6.04-4.66-6.04s-4.66,3.01-4.66,6.04c0,0,.06.6.37,1.08-1.56.54-2.77,1.69-3.26,4.06-.2.99-.47,2.42-.52,3.69"/>
  </g>
</svg>