<?xml version="1.0" encoding="UTF-8"?>
<svg id="icons" xmlns="http://www.w3.org/2000/svg" version="1.1" viewBox="0 0 35.67 28.64">
  <!-- Generator: Adobe Illustrator 29.1.0, SVG Export Plug-In . SVG Version: 2.1.0 Build 142)  -->
  <defs>
    <style>
      .st0 {
        fill: none;
        stroke: #fff;
        stroke-linejoin: round;
      }

      .st1 {
        fill: #fff;
        opacity: .1;
      }
    </style>
  </defs>
  <path class="st1" d="M0,14.26C0,6.38,6.38,0,14.26,0s14.25,6.38,14.25,14.26-6.38,14.26-14.25,14.26S0,22.13,0,14.26"/>
  <path class="st0" d="M26.53,13.23s-1.18,1.35-3.05.46M14.18,22.24c-.52.52-1.36.52-1.88,0-.52-.52-.52-1.36,0-1.88l.67-.67c.52-.52,1.36-.52,1.88,0,.52.52.52,1.36,0,1.88l-.67.67ZM16.18,24.32l.68-.68c.53-.53,1.38-.53,1.91,0,.53.53.53,1.38,0,1.91l-.68.68c-.53.53-1.38.53-1.91,0-.53-.53-.53-1.38,0-1.91ZM14.82,21.6c.56-.56,1.47-.56,2.04,0,.56.56.56,1.48,0,2.04l-.72.73c-.56.56-1.48.56-2.04,0-.56-.56-.56-1.48,0-2.04M18.3,26.02l.62-.62c.48-.48,1.27-.48,1.75,0,.48.48.48,1.27,0,1.75l-.62.62c-.48.48-1.27.48-1.75,0-.48-.48-.48-1.27,0-1.75ZM28.99,19.37c1.42-1.49,1.77-2.27,2.04-3.89.06-.36.23-.7.49-.96l1.25-1.24M24.49,18.68l3.41,3.4c.65.65,1.64.72,2.21.16.57-.57.5-1.56-.16-2.21l-7.31-7.24c-.27-.27-.71-.28-1-.03l-.21.19c-.61.53-1.07,1.18-1.48,1.88-.86,1.46-2.23,2.05-3.15,1.69-1.86-.74,1.57-5.21,1.57-5.21.64-.76,1.53-1.58,2.58-2.19,0,0,1.37-.56,2.81-.84.4-.08.77-.26,1.06-.54l1.2-1.2M26.87,4.07l-1.65,1.65,8.45,8.44,1.65-1.65M23.28,25.69c.52.52.49,1.41-.08,1.97-.57.57-1.45.6-1.97.08l-.68-.68M12.98,19.69c-1.02-1.2-2.14-2.8-2.43-4.23-.07-.35-.23-.68-.48-.93l-1.26-1.26M15.28,6.79l.64.64c.55.54,1.31.85,2.07.76.83-.1,2.01-.01,2.96.93M22.37,20.68l3.57,3.57c.57.57.58,1.5.01,2.07-.57.57-1.49.56-2.07-.01l-3.57-3.57M24.48,18.68l4.1,4.09c.58.58.6,1.52.03,2.08-.57.57-1.5.55-2.09-.03l-4.15-4.15M14.7,4.07l1.65,1.65L7.91,14.16l-1.65-1.65"/>
</svg>