<?xml version="1.0" encoding="UTF-8"?>
<svg id="icons" xmlns="http://www.w3.org/2000/svg" version="1.1" viewBox="0 0 39.71 29.56">
  <!-- Generator: Adobe Illustrator 29.1.0, SVG Export Plug-In . SVG Version: 2.1.0 Build 142)  -->
  <defs>
    <style>
      .st0 {
        stroke-linecap: round;
      }

      .st0, .st1 {
        fill: none;
        stroke: #fff;
        stroke-linejoin: round;
        stroke-width: 1px;
      }

      .st2 {
        fill: #fff;
        opacity: .1;
      }
    </style>
  </defs>
  <path class="st2" d="M0,15.3C0,7.43,6.38,1.04,14.26,1.04s14.26,6.38,14.26,14.26-6.38,14.26-14.26,14.26S0,23.17,0,15.3"/>
  <g>
    <path class="st1" d="M13.22,8.84c2.3,0,4.17-1.87,4.17-4.17S15.53.5,13.22.5s-4.17,1.87-4.17,4.17,1.87,4.17,4.17,4.17ZM22.3,18.42c-.89-.26-4.35-1.54-4.35-5.5v-3.09c.94-.35,2.21-.66,4.25-.66,1.65,0,3.13.23,4.43.67v3.08c0,3.89-3.47,5.14-4.34,5.5ZM22.25,10.89c-1.15,0-2.03.12-2.63.26v1.85c0,2.27,1.7,3.25,2.63,3.61v-5.73Z"/>
    <path class="st0" d="M22.3,24.43c2.87.15,5.89-1.06,7.52-2.47l.35,2.98M39.21,24.94l-.93-10.24c-.34-2.7-2.58-4.24-4.84-4.02-2.29.22-3.8,2.12-4.08,4.36-.44,3.52-3.25,5.78-6.95,5.96M15.02,21.85l-.26,3.1M5.53,24.94l.95-10.43c.35-2.85,2.67-4.3,4.94-4.1,2.34.21,3.88,2.16,4.16,4.44.45,3.59,2.99,5.7,6.25,5.99,1.02.09,1.77.99,1.69,2.01-.09,1.15-1.06,1.69-1.89,1.69h0c-4.49-.32-7.81-2.98-9.13-6.24"/>
    <circle class="st1" cx="31.67" cy="5.02" r="4.09" transform="translate(26.53 36.67) rotate(-89.78)"/>
  </g>
</svg>