<?xml version="1.0" encoding="UTF-8"?>
<svg id="icons" xmlns="http://www.w3.org/2000/svg" version="1.1" viewBox="0 0 35.07 30.53">
  <!-- Generator: Adobe Illustrator 29.1.0, SVG Export Plug-In . SVG Version: 2.1.0 Build 142)  -->
  <defs>
    <style>
      .st0 {
        fill: none;
        stroke: #fff;
        stroke-linecap: round;
        stroke-linejoin: round;
        stroke-width: .85px;
      }

      .st1 {
        fill: #fff;
        opacity: .1;
      }
    </style>
  </defs>
  <path class="st1" d="M0,16.28C0,8.41,6.38,2.02,14.26,2.02s14.26,6.38,14.26,14.26-6.38,14.26-14.26,14.26S0,24.15,0,16.28"/>
  <path class="st0" d="M19.94,10.49l1.9-1.9c.42-.42,1.1-.42,1.52,0l.76.76c.42.42.42,1.1,0,1.52l-.38.38M17.67,8.21l1.52-1.52c.42-.42,1.1-.42,1.52,0l.76.76c.42.42.42,1.1,0,1.52M22.22,12.77l1.52-1.52c.42-.42,1.1-.42,1.52,0l.76.76c.42.42.42,1.1,0,1.52l-1.9,1.9c-.42.42-1.1.42-1.52,0l-1.29-1.3M24.12,17.7l-.38-.38c-.42-.42-.42-1.1,0-1.52l.76-.76,1.14-1.14c.42-.42,1.1-.42,1.52,0l.38.38c.42.42.42,1.1,0,1.52l-1.9,1.9c-.42.42-1.1.42-1.52,0ZM16.68,18.19c1.62-1.69.81-5.6-.15-6.56.25.25,1.66,1.66,2.28,2.28,1.38,1.38,3.18-.14,3.79-.76-.52-.52-4.93-4.93-4.93-4.93-.71-.71-1.78-.19-2.28,0-.77.29-2.21.8-2.66,1.14-.45.34-.62,2.07-.62,3.34v3.76l-2.68,2.68M16.4,24.5l1.61-1.61c.65-.68,2.31-.12,3.22-1.07l4.4-4.12M28.09,19.08l5.51-1.65-2.35-2.08,3.4-3.46-4.19-.74,3.52-4.83-4.65.58,2.91-6.39-6.64,3.25-.45-2.97-3.8,2.65-1.5-3.01-3.36,4.35"/>
</svg>