<?xml version="1.0" encoding="UTF-8"?>
<svg id="icons" xmlns="http://www.w3.org/2000/svg" version="1.1" viewBox="0 0 37 33.62">
  <!-- Generator: Adobe Illustrator 29.1.0, SVG Export Plug-In . SVG Version: 2.1.0 Build 142)  -->
  <defs>
    <style>
      .st0, .st1, .st2 {
        fill: none;
        stroke: #fff;
      }

      .st0, .st2 {
        stroke-linejoin: round;
      }

      .st1 {
        stroke-miterlimit: 10;
      }

      .st3 {
        fill: #fff;
        opacity: .1;
      }

      .st2 {
        stroke-linecap: round;
      }
    </style>
  </defs>
  <path class="st3" d="M0,19.36C0,11.49,6.38,5.1,14.26,5.1s14.25,6.38,14.25,14.26-6.38,14.26-14.25,14.26S0,27.23,0,19.36"/>
  <g>
    <path class="st1" d="M26.5,9.99l-2.41-3.72c-.48-.74-.96-1.49-2.19-1.75l-8.63-1.85M20.14,6.71s2.97,4.59,3.86,5.96c.89,1.37-2.2,2.32-3.33.57-.52-.8-.96-1.49-.96-1.49-.28-.06-.99-.21-1.23-.26-2.4-.51-2.6-2.84-2.52-3.2M11.43,11.26l2.49.53s.99,2.14,2.67,2.5l1.08.23"/>
    <path class="st0" d="M17.67,11.22v9.48M30.22,20.7v-10.66h-7.93"/>
    <polyline class="st2" points="10.45 .5 13.59 1.17 11.07 12.9 7.94 12.23"/>
    <path class="st0" d="M36.5,27.6v-5.02l-3.14-5.02h-1.88M11.4,27.6v-5.02l3.14-5.02h1.88M15.79,20.7h16.31"/>
  </g>
</svg>