<?xml version="1.0" encoding="UTF-8"?>
<svg id="icons" xmlns="http://www.w3.org/2000/svg" version="1.1" viewBox="0 0 36.79 29.84">
  <!-- Generator: Adobe Illustrator 29.1.0, SVG Export Plug-In . SVG Version: 2.1.0 Build 142)  -->
  <defs>
    <style>
      .st0 {
        fill: none;
        stroke: #fff;
        stroke-miterlimit: 10;
        stroke-width: .8px;
      }

      .st1 {
        fill: #fff;
        opacity: .1;
      }
    </style>
  </defs>
  <path class="st1" d="M0,15.58C0,7.71,6.38,1.33,14.26,1.33s14.25,6.38,14.25,14.26-6.38,14.26-14.25,14.26S0,23.46,0,15.58"/>
  <path class="st0" d="M15.11,4.3s-.19,2.57,0,4.21c.43,3.72,1.44,4.53,1.49,6.4.07,2.36-.1,11.07-.1,11.07M20.97,9.16c1.37-1.42,3.9-1.81,3.9-1.81v-.8c-.08-1.44,1.16-3.06,2.83-3.06l-.07,5.02c-.04.76-.41,1.47-1.01,1.92,0,0-1.53,1.33-2.28,3.1-.72,1.7-.71,12.44-.71,12.44M22.28,6.24c.24-.24.38-.55.39-.88l.02-3.68c0-.69-.56-1.27-1.25-1.28-.33,0-.64.12-.88.36-.24.24-.38.55-.38.88l-.02,3.68c-.01.69.55,1.27,1.24,1.28.33,0,.65-.12.89-.36ZM24.8,5.68c.24-.24.38-.55.39-.88v-2.2c.02-.7-.53-1.27-1.23-1.28-.33,0-.65.12-.89.36-.24.24-.38.55-.39.88v2.2c-.02.69.53,1.27,1.23,1.28.33,0,.65-.12.89-.36ZM17.23,5.7c.24-.24.39-.55.4-.88v-1.08c.02-.7-.53-1.27-1.23-1.28-.33,0-.65.12-.89.36-.24.24-.38.55-.38.88l-.03,1.08c-.01.7.55,1.27,1.24,1.28.33,0,.65-.12.89-.36ZM19.76,5.77c.25-.24.38-.55.39-.88l.02-2.64c.01-.7-.55-1.27-1.24-1.28-.33,0-.65.12-.9.36-.24.24-.38.55-.38.88l-.02,2.64c0,.7.55,1.27,1.24,1.28.33,0,.65-.12.89-.36ZM27.81,5.67l2.79.27M10.74,6.03l4.16-.37M30.61,6.03c0,.56.46,1.02,1.02,1.02s1.02-.46,1.02-1.02-.46-1.02-1.02-1.02-1.02.46-1.02,1.02ZM26.93,14.38c0,.37.03.73.1,1.08.44,2.44,2.35,4.28,4.64,4.28s4.06-1.71,4.58-4.02c.1-.43.15-.87.15-1.33h-9.46ZM29.15,14.38l2.34-7.21c.05-.17.3-.17.35,0l2.34,7.21M10.78,6.11c0,.56-.46,1.02-1.02,1.02s-1.02-.46-1.02-1.02.46-1.02,1.02-1.02,1.02.46,1.02,1.02ZM14.46,14.47c0,.37-.03.73-.1,1.08-.44,2.44-2.35,4.28-4.63,4.28s-4.06-1.71-4.59-4.02c-.1-.43-.15-.87-.15-1.33h9.46ZM12.24,14.47l-2.34-7.21c-.05-.17-.3-.17-.35,0l-2.34,7.21"/>
</svg>