<?xml version="1.0" encoding="UTF-8"?>
<svg id="icons" xmlns="http://www.w3.org/2000/svg" version="1.1" viewBox="0 0 31.86 32.17">
  <!-- Generator: Adobe Illustrator 29.1.0, SVG Export Plug-In . SVG Version: 2.1.0 Build 142)  -->
  <defs>
    <style>
      .st0 {
        fill: #fff;
        opacity: .1;
      }

      .st1 {
        fill: none;
        stroke: #fff;
        stroke-linecap: round;
        stroke-linejoin: round;
      }
    </style>
  </defs>
  <path class="st0" d="M0,17.92C0,10.04,6.38,3.66,14.26,3.66s14.25,6.38,14.25,14.26-6.38,14.26-14.25,14.26S0,25.79,0,17.92"/>
  <path class="st1" d="M20.99,11.69h.21c.7,0,1.33.31,1.76.8M15.42,11.69h-.21c-.71,0-1.34.31-1.77.81M20.99,11.69l-2.79,2.8M15.42,11.69l2.79,2.8M20.47,8.11c0,1.59-1.02,2.87-2.27,2.87s-2.26-1.29-2.26-2.87,1.01-2.87,2.26-2.87,2.27,1.29,2.27,2.87ZM5.06,27.79h26.3M27.33,19.51h.21c1.29,0,2.35,1.06,2.35,2.35v5.89M21.75,19.51h-.21c-1.29,0-2.35,1.06-2.35,2.35v5.89M27.33,19.51l-2.79,2.8M21.75,19.51l2.79,2.8M26.77,16.07c0,1.56-1,2.83-2.23,2.83s-2.23-1.27-2.23-2.83,1-2.82,2.23-2.82,2.23,1.26,2.23,2.82ZM27.59,27.79v-2.76M21.48,25.03v2.76M14.64,19.51h.21c1.29,0,2.35,1.06,2.35,2.35v5.89M9.06,19.51h-.21c-1.29,0-2.35,1.06-2.35,2.35v5.89M14.64,19.51l-2.79,2.8M9.06,19.51l2.79,2.8M14.08,16.07c0,1.56-1,2.83-2.23,2.83s-2.23-1.27-2.23-2.83,1-2.82,2.23-2.82,2.23,1.26,2.23,2.82ZM14.9,27.79v-2.76M8.78,25.03v2.76M30.91,13.2h-3.96M25.04,12.09c-.3-6.49-3.25-11.59-6.84-11.59M18.21.5c3.48,0,6.64,1.4,8.93,3.68-1.54,1.53-3.47,2.66-5.63,3.24M29.5,19.02c.9-1.74,1.41-3.72,1.41-5.82,0-7.01-5.69-12.7-12.7-12.7M18.21.5v3.68M5.51,13.2h3.96M11.37,12.09c.3-6.49,3.25-11.59,6.84-11.59M18.21.5c-3.49,0-6.64,1.4-8.94,3.68,1.54,1.53,3.47,2.66,5.63,3.24M6.91,19.02c-.9-1.74-1.41-3.72-1.41-5.82C5.51,6.19,11.19.5,18.21.5"/>
</svg>