<?xml version="1.0" encoding="UTF-8"?>
<svg id="icons" xmlns="http://www.w3.org/2000/svg" version="1.1" viewBox="0 0 33.3 35.69">
  <!-- Generator: Adobe Illustrator 29.1.0, SVG Export Plug-In . SVG Version: 2.1.0 Build 142)  -->
  <defs>
    <style>
      .st0, .st1 {
        fill: #fff;
      }

      .st1 {
        opacity: .1;
      }

      .st2 {
        fill: none;
        stroke: #fff;
        stroke-linecap: round;
        stroke-linejoin: round;
      }
    </style>
  </defs>
  <path class="st1" d="M0,21.43C0,13.56,6.38,7.17,14.26,7.17s14.26,6.38,14.26,14.26-6.38,14.26-14.26,14.26S0,29.3,0,21.43"/>
  <g>
    <path class="st2" d="M8.78,27.18h.27c.55,0,1.09.08,1.62.24l8.27,2.86c.89.25,1.84.12,2.62-.36l10.46-6.17c.85-.52,1.06-1.68.37-2.46-.51-.58-1.37-.69-2.06-.35l-4.12,2.16M16.42,25.04h8.1c.89,0,1.68-.65,1.73-1.52.05-.93-.7-1.7-1.64-1.7h-5.56c-.55,0-1.1-.2-1.49-.58-.99-.95-2.59-1.56-4.41-1.56-1.32,0-2.51.33-3.45.86-.26.15-.56.21-.85.21h-.07M5.51,19.67h3.28v9.66h-2.18"/>
    <path class="st0" d="M21.86,18.96c-5.23,0-9.48-4.25-9.48-9.48S16.63,0,21.86,0s9.48,4.25,9.48,9.48-4.25,9.48-9.48,9.48M21.86.77c-4.8,0-8.71,3.91-8.71,8.71s3.91,8.71,8.71,8.71,8.71-3.91,8.71-8.71S26.66.77,21.86.77"/>
    <path class="st0" d="M30.96,9.86H12.76c-.21,0-.38-.17-.38-.38s.17-.38.38-.38h18.19c.21,0,.38.17.38.38s-.17.38-.38.38"/>
    <path class="st0" d="M21.86,18.96c-.21,0-.38-.17-.38-.38V.39c0-.21.17-.39.38-.39s.38.17.38.39v18.19c0,.21-.17.38-.38.38"/>
    <path class="st0" d="M21.86,18.96c-.13,0-.26-.07-.33-.19-.11-.18-.04-.42.14-.52.04-.03,4.36-2.6,4.36-8.76S21.71.74,21.67.72c-.18-.11-.25-.34-.14-.53.11-.18.34-.24.52-.14.19.11,4.74,2.81,4.74,9.43s-4.55,9.32-4.74,9.43c-.06.03-.13.05-.19.05"/>
    <path class="st0" d="M21.86,18.96c-.07,0-.13-.02-.19-.05-.19-.11-4.74-2.8-4.74-9.43S21.48.16,21.67.05c.19-.1.42-.04.52.14.11.18.04.42-.14.53-.04.03-4.36,2.6-4.36,8.76s4.31,8.74,4.35,8.76c.18.11.25.34.14.52-.07.12-.2.19-.33.19"/>
    <path class="st0" d="M15.08,15.93c-.14,0-.27-.07-.34-.2-.1-.19-.03-.42.16-.52,1.96-1.04,4.3-1.57,6.96-1.57s4.99.53,6.96,1.56c.19.1.26.33.16.52-.1.19-.33.26-.52.16-1.85-.98-4.07-1.47-6.6-1.47s-4.75.5-6.6,1.47c-.06.03-.12.04-.18.04"/>
    <path class="st0" d="M21.86,5.32c-2.65,0-4.99-.53-6.96-1.56-.19-.1-.26-.33-.16-.52.1-.19.33-.26.52-.16,1.85.98,4.07,1.48,6.6,1.48s4.75-.5,6.6-1.48c.19-.1.42-.03.52.16.1.19.03.42-.16.52-1.96,1.04-4.3,1.57-6.96,1.57"/>
  </g>
</svg>