<?xml version="1.0" encoding="UTF-8"?>
<svg id="icons" xmlns="http://www.w3.org/2000/svg" version="1.1" viewBox="0 0 38.49 28.51">
  <!-- Generator: Adobe Illustrator 29.1.0, SVG Export Plug-In . SVG Version: 2.1.0 Build 142)  -->
  <defs>
    <style>
      .st0, .st1 {
        fill: #fff;
      }

      .st1 {
        opacity: .1;
      }
    </style>
  </defs>
  <path class="st1" d="M0,14.26C0,6.38,6.38,0,14.26,0s14.26,6.38,14.26,14.26-6.38,14.26-14.26,14.26S0,22.13,0,14.26"/>
  <g>
    <path class="st0" d="M26.48,21.32c2.43-1.84,4.02-4.75,4.02-8.03,0-3.04-1.36-5.77-3.5-7.62,5.22,2.29,9.36,6.51,10.41,7.64-.99,1.23-5.02,5.86-10.92,8.01M3.23,13.39c.85-1.01,5.09-5.77,11-8.03-2.36,1.85-3.88,4.71-3.88,7.93s1.63,6.27,4.12,8.11c-6.24-2.13-10.52-6.95-11.24-8.01M20.42,22.42h0c-5.03,0-9.13-4.1-9.13-9.13s4.1-9.13,9.13-9.13h0c5.04,0,9.13,4.1,9.13,9.13s-4.1,9.13-9.13,9.13M38.37,12.98c-.35-.4-8.57-9.77-17.95-9.77h0C10.22,3.21,2.74,12.48,2.34,12.98c-.08.09-.14.22-.14.33,0,1.13,8.12,10.04,18.22,10.04h0c10.66,0,17.68-9.4,17.98-9.8.13-.18.12-.42-.02-.59"/>
    <path class="st0" d="M23.98,18.82h-7.28v-6.69h7.28v6.69ZM18.59,9.51v-.35c0-.86,0-1.74.45-2.2.27-.27.69-.4,1.3-.4s1.06.13,1.33.4c.44.45.44,1.31.43,2.22v2.02h-3.51c0-.49,0-1.25,0-1.68M24.46,11.2h-1.41v-2.01c0-1.06.02-2.16-.7-2.89-.45-.45-1.1-.67-2-.67s-1.52.22-1.97.67c-.73.74-.73,1.87-.73,2.87v.34c0,.44,0,1.2,0,1.69h-1.41c-.26,0-.47.21-.47.47v7.63c0,.26.21.47.47.47h8.22c.26,0,.47-.21.47-.47v-7.63c0-.26-.21-.47-.47-.47"/>
    <path class="st0" d="M18.26,13.61h.76v1.05h-.76v-1.05ZM22.43,14.66h-.76v-1.05h.76v1.05ZM19.96,13.61h.76v1.05h-.76v-1.05ZM17.32,13.14v1.99c0,.26.21.47.47.47h1.64s.04.01.07.01.04-.01.07-.01h1.57s.04.01.07.01.04-.01.07-.01h1.64c.26,0,.47-.21.47-.47v-1.99c0-.26-.21-.47-.47-.47h-5.12c-.26,0-.47.21-.47.47"/>
  </g>
</svg>