<?xml version="1.0" encoding="UTF-8"?>
<svg id="icons" xmlns="http://www.w3.org/2000/svg" version="1.1" viewBox="0 0 36.14 29.4">
  <!-- Generator: Adobe Illustrator 29.1.0, SVG Export Plug-In . SVG Version: 2.1.0 Build 142)  -->
  <defs>
    <style>
      .st0 {
        fill: #fff;
        opacity: .1;
      }

      .st1 {
        fill: none;
        stroke: #fff;
        stroke-linecap: round;
        stroke-linejoin: round;
      }
    </style>
  </defs>
  <path class="st0" d="M0,15.15C0,7.27,6.38.89,14.26.89s14.26,6.38,14.26,14.26-6.38,14.26-14.26,14.26S0,23.02,0,15.15"/>
  <path class="st1" d="M29.09,12.31v-4.29M21.45,12.31v-4.29M19.26,12.31v-4.29M32.91,8.02h0c-.9,0-1.64.72-1.64,1.61v1.07c0,.89.73,1.61,1.64,1.61s1.64-.72,1.64-1.61v-1.07c0-.89-.73-1.61-1.64-1.61ZM25.27,8.02h0c-.9,0-1.64.72-1.64,1.61v1.07c0,.89.73,1.61,1.64,1.61s1.64-.72,1.64-1.61v-1.07c0-.89-.73-1.61-1.64-1.61ZM15.44,8.02h0c-.9,0-1.64.72-1.64,1.61v1.07c0,.89.73,1.61,1.64,1.61s1.64-.72,1.64-1.61v-1.07c0-.89-.73-1.61-1.64-1.61ZM29.09,4.79V.5M21.45,4.79V.5M13.8,4.79V.5M32.91.5h0c-.9,0-1.64.72-1.64,1.61v1.07c0,.89.73,1.61,1.64,1.61s1.64-.72,1.64-1.61v-1.07c0-.89-.73-1.61-1.64-1.61ZM25.27.5h0c-.9,0-1.64.72-1.64,1.61v1.07c0,.89.73,1.61,1.64,1.61s1.64-.72,1.64-1.61v-1.07c0-.89-.73-1.61-1.64-1.61ZM17.62.5h0c-.9,0-1.64.72-1.64,1.61v1.07c0,.89.73,1.61,1.64,1.61s1.64-.72,1.64-1.61v-1.07c0-.89-.73-1.61-1.64-1.61ZM8.34,14.46h3.28v9.66h-2.18M19.26,19.82h8.1c.89,0,1.68-.65,1.73-1.52.05-.93-.7-1.7-1.64-1.7h-5.56c-.55,0-1.1-.2-1.49-.58-.99-.95-2.59-1.56-4.41-1.56-1.32,0-2.51.33-3.45.86-.26.15-.56.21-.85.21h-.07M11.62,21.97h.26c.55,0,1.09.08,1.62.24l8.27,2.86c.89.25,1.84.12,2.62-.36l10.46-6.17c.85-.52,1.06-1.68.37-2.46-.51-.58-1.37-.69-2.06-.35l-4.12,2.16"/>
</svg>