<?xml version="1.0" encoding="UTF-8"?>
<svg id="icons" xmlns="http://www.w3.org/2000/svg" version="1.1" viewBox="0 0 34 30.53">
  <!-- Generator: Adobe Illustrator 29.1.0, SVG Export Plug-In . SVG Version: 2.1.0 Build 142)  -->
  <defs>
    <style>
      .st0 {
        fill: none;
        stroke: #fff;
        stroke-miterlimit: 10;
        stroke-width: .64px;
      }

      .st1 {
        fill: #fff;
        opacity: .1;
      }
    </style>
  </defs>
  <path class="st1" d="M0,16.28C0,8.41,6.38,2.02,14.26,2.02s14.25,6.38,14.25,14.26-6.38,14.26-14.25,14.26S0,24.15,0,16.28"/>
  <path class="st0" d="M22.75,1.35c0,.57-.46,1.03-1.03,1.03s-1.03-.46-1.03-1.03.46-1.03,1.03-1.03,1.03.46,1.03,1.03ZM21.72,2.36v7.17M16.33,1.82l4.37-.39M22.75,1.43l4.41.34M24.49,6.18c0,.19.03.82.08,1,.29.97,1.34,1.68,2.59,1.68s2.37-.77,2.62-1.79c.04-.15.05-.73.05-.89h-5.35ZM29.11,6.18l-1.84-4.33c-.03-.1-.17-.1-.2,0l-1.92,4.33M13.65,6.23c0,.19.03.77.08.94.3.97,1.34,1.68,2.59,1.68s2.37-.77,2.62-1.79c.04-.15.05-.68.05-.84h-5.35ZM18.38,6.23l-1.95-4.33c-.03-.1-.17-.1-.2,0l-1.89,4.33M30.25,19.87s.01-.01.02-.02c.66-.78,1.45-1.43,2.32-1.98l1.25-.78M11.03,8.16c1.97,1.69,4.57,3.51,4.57,3.51l.04.02c.4.21.85.31,1.3.28l1.27-.07M8.6,15.53c3.23,2.31,3.65,3.09,3.65,3.09M19.85,24.61s1.7,1.17,1.92,1.31c.47.31,1.12.26,1.53-.16.48-.48.48-1.25,0-1.72l-3.07-2.09M20.36,22.03s4.71,3.24,4.92,3.39c.47.31,1.12.26,1.53-.16.48-.48.48-1.25,0-1.72l-4.24-2.93M22.59,20.63s4.51,3.12,4.75,3.28c.47.31,1.12.26,1.53-.16.48-.48.52-1.37.04-1.84l-4.18-2.89M32.99,7.83c-2.28,2.24-5.52,4.09-5.52,4.09-4.12-1.3-7.34-.97-7.34-.97-.74.02-1.43.37-1.89.95l-2.11,2.82s-.89.97.22,1.44c1.24.53,2.47-.12,3.23-1.31l.62-.97c.26-.41.81-.51,1.21-.22l2.79,2.05s2.14,1.46,3.89,0M23.91,15.53l5.79,3.99c.33.23.55.59.55.99,0,.31-.12.62-.36.86-.42.42-1.06.47-1.53.16-.24-.16-4.51-3.12-4.51-3.12M15.89,18.76c-.33.05-.61.22-.81.48l-2.1,2.91c-.4.54-.29,1.32.26,1.72.26.19.58.27.91.22.33-.05.61-.22.81-.48l2.1-2.91c.4-.54.29-1.32-.26-1.72-.26-.19-.58-.27-.91-.22ZM13.35,18.07c-.33.05-.61.22-.81.48l-1.06,1.43c-.4.55-.29,1.32.26,1.72.26.19.59.27.91.22.33-.05.61-.22.81-.48l1.06-1.43c.4-.55.29-1.32-.26-1.72-.26-.19-.58-.27-.91-.22ZM17.16,21.22c-.33.05-.61.22-.81.48l-1.06,1.43c-.4.55-.29,1.32.26,1.72.26.19.58.27.91.22.33-.05.61-.22.81-.48l1.06-1.43c.4-.54.29-1.32-.26-1.72-.26-.19-.58-.27-.91-.22ZM18.49,23.21c-.33.05-.67.65-.86.91-.4.55-.29,1.32.26,1.72.26.19.58.27.91.22.33-.05.61-.22.81-.48.4-.54.49-1.47-.04-2.06-.22-.24-.74-.37-1.07-.32Z"/>
</svg>