<?xml version="1.0" encoding="UTF-8"?>
<svg id="icons" xmlns="http://www.w3.org/2000/svg" version="1.1" viewBox="0 0 32.78 31.72">
  <!-- Generator: Adobe Illustrator 29.1.0, SVG Export Plug-In . SVG Version: 2.1.0 Build 142)  -->
  <defs>
    <style>
      .st0, .st1 {
        fill: none;
        stroke: #fff;
        stroke-linejoin: round;
        stroke-width: 1.16px;
      }

      .st1 {
        stroke-linecap: round;
      }

      .st2 {
        fill: #fff;
        opacity: .1;
      }
    </style>
  </defs>
  <path class="st2" d="M0,17.46C0,9.59,6.38,3.21,14.26,3.21s14.25,6.38,14.25,14.26-6.38,14.26-14.25,14.26S0,25.33,0,17.46"/>
  <g>
    <path class="st0" d="M26.37,13.4v.58c0,7.4-3.39,13.4-7.58,13.4s-7.57-6-7.57-13.4v-.58M18.79,27.39v-13.99M32.2,13.99c0,7.4-6,13.4-13.4,13.4s-13.4-6-13.4-13.4v-.58h26.81v.58ZM14.71,6.9c-.08-.04-.15-.07-.24-.1l-1.51-.39-2.33,2.33-2.33-2.33-1.51.39c-.84.28-1.4,1.06-1.4,1.95v4.66M32.2,13.4v-4.66c0-.88-.57-1.67-1.4-1.95l-1.51-.39-2.33,2.33-2.33-2.33-1.51.39c-.08.03-.16.06-.24.1M12.97,2.91c0,1.29-1.04,2.33-2.33,2.33s-2.33-1.04-2.33-2.33,1.04-2.33,2.33-2.33,2.33,1.04,2.33,2.33ZM29.28,2.91c0,1.29-1.04,2.33-2.33,2.33s-2.33-1.04-2.33-2.33,1.04-2.33,2.33-2.33,2.33,1.04,2.33,2.33ZM21.12,2.91c0,1.29-1.04,2.33-2.33,2.33s-2.33-1.04-2.33-2.33,1.04-2.33,2.33-2.33,2.33,1.04,2.33,2.33ZM24.04,13.4v-4.66c0-.88-.57-1.67-1.4-1.95l-1.51-.39-2.33,2.33-2.33-2.33-1.51.39c-.84.28-1.4,1.06-1.4,1.95v4.66"/>
    <path class="st1" d="M29.86,9.91v3.5M7.72,9.91v3.5M15.88,9.91v3.5M21.71,9.91v2.91"/>
    <line class="st0" x1="30.57" y1="20.4" x2="7.02" y2="20.4"/>
  </g>
</svg>