<?xml version="1.0" encoding="UTF-8"?>
<svg id="icons" xmlns="http://www.w3.org/2000/svg" version="1.1" viewBox="0 0 34.69 32.89">
  <!-- Generator: Adobe Illustrator 29.1.0, SVG Export Plug-In . SVG Version: 2.1.0 Build 142)  -->
  <defs>
    <style>
      .st0 {
        stroke-linejoin: round;
      }

      .st0, .st1, .st2 {
        fill: none;
        stroke: #fff;
      }

      .st1, .st2 {
        stroke-miterlimit: 10;
      }

      .st2 {
        stroke-linecap: round;
      }

      .st3 {
        fill: #fff;
        opacity: .1;
      }
    </style>
  </defs>
  <path class="st3" d="M0,18.64C0,10.76,6.38,4.38,14.26,4.38s14.26,6.38,14.26,14.26-6.38,14.26-14.26,14.26S0,26.51,0,18.64"/>
  <g>
    <path class="st1" d="M8.84,10.67v12.68M8.84,16.32h-.63c-1.35,0-1.88-1.16-1.88-2.51v-2.51c0-2.82,1.52-3.76,3.76-3.76h2.51c2.25,0,3.76.95,3.76,3.76v2.51c0,1.35-.54,2.51-1.88,2.51h-.63M13.86,10.67v12.68M11.35,15.69v7.67M11.35,5.65c-1.08,0-1.88-.96-1.88-2.15v-.72c0-1.19.8-2.15,1.88-2.15s1.88.96,1.88,2.15v.72c0,1.19-.8,2.15-1.88,2.15ZM25.16,10.54v12.82M25.16,16.18h-.63c-1.35,0-1.88-1.16-1.88-2.51v-2.51c0-2.82,1.52-3.76,3.76-3.76h2.51c2.25,0,3.76.95,3.76,3.76v2.51c0,1.35-.54,2.51-1.88,2.51h-.63M30.18,10.54v12.82M27.67,15.56v7.8M27.67,5.52c-1.08,0-1.88-.96-1.88-2.15v-.72c0-1.19.8-2.15,1.88-2.15s1.88.96,1.88,2.15v.72c0,1.19-.8,2.15-1.88,2.15Z"/>
    <polygon class="st0" points="19.72 23.36 16.9 28.38 22.55 28.38 19.72 23.36"/>
    <line class="st2" x1="5.26" y1="23.36" x2="34.19" y2="23.36"/>
  </g>
</svg>