<?xml version="1.0" encoding="UTF-8"?>
<svg id="icons" xmlns="http://www.w3.org/2000/svg" version="1.1" viewBox="0 0 34.44 29.61">
  <!-- Generator: Adobe Illustrator 29.1.0, SVG Export Plug-In . SVG Version: 2.1.0 Build 142)  -->
  <defs>
    <style>
      .st0 {
        stroke-linecap: round;
      }

      .st0, .st1 {
        fill: none;
        stroke: #fff;
        stroke-linejoin: round;
        stroke-width: 1px;
      }

      .st2 {
        fill: #fff;
        opacity: .1;
      }
    </style>
  </defs>
  <path class="st2" d="M0,15.36C0,7.48,6.38,1.1,14.26,1.1s14.26,6.38,14.26,14.26-6.38,14.26-14.26,14.26S0,23.23,0,15.36"/>
  <g>
    <path class="st1" d="M20.5,4.03c-3.48,0-6.17.36-7.99.8v5.63c0,6.9,5.17,9.88,7.99,10.98V4.03Z"/>
    <path class="st0" d="M31.26,18.17l-3.22,4.39-2.4-1.88M33.94,20.17c0,2.95-2.39,5.34-5.34,5.34s-5.34-2.39-5.34-5.34,2.39-5.34,5.34-5.34,5.34,2.39,5.34,5.34Z"/>
    <path class="st1" d="M24.38,23.44c-1.62.96-3.06,1.51-3.81,1.76-2.36-.7-11.6-4.12-11.6-14.68V2.27c2.5-.94,5.89-1.76,11.35-1.76,4.39,0,8.36.6,11.83,1.79v8.23c0,1.89-.33,3.56-.86,5.03"/>
  </g>
</svg>