<?xml version="1.0" encoding="UTF-8"?>
<svg id="icons" xmlns="http://www.w3.org/2000/svg" version="1.1" viewBox="0 0 29.77 34.84">
  <!-- Generator: Adobe Illustrator 29.1.0, SVG Export Plug-In . SVG Version: 2.1.0 Build 142)  -->
  <defs>
    <style>
      .st0, .st1 {
        fill: #fff;
      }

      .st1 {
        opacity: .1;
      }
    </style>
  </defs>
  <path class="st1" d="M0,20.59C0,12.71,6.38,6.33,14.26,6.33s14.25,6.38,14.25,14.26-6.38,14.26-14.25,14.26S0,28.46,0,20.59"/>
  <g>
    <path class="st0" d="M28.99,29.55H12.15v-15.57h16.84v15.57ZM16.19,7.72c0-.24,0-.49,0-.74,0-1.96-.01-3.99,1.15-5.16.69-.7,1.75-1.03,3.23-1.03s2.6.34,3.28,1.03c1.13,1.14,1.11,3.2,1.1,5.19,0,.24,0,.48,0,.72v5.47h-8.76c0-1.26,0-5.13,0-5.47M29.38,13.19h-3.65v-5.47c0-.23,0-.47,0-.71.02-2.15.03-4.38-1.33-5.75-.84-.85-2.1-1.26-3.84-1.26s-2.94.41-3.79,1.26c-1.39,1.4-1.39,3.69-1.38,5.72,0,.25,0,.49,0,.74,0,.34,0,4.22,0,5.48h-3.65c-.22,0-.39.18-.39.39v16.35c0,.22.18.39.39.39h17.63c.22,0,.39-.18.39-.39V13.59c0-.22-.18-.39-.39-.39"/>
    <path class="st0" d="M18.88,25.25l1.21-3.78c.06-.18-.02-.38-.2-.47-.52-.26-.84-.78-.84-1.35,0-.84.68-1.52,1.52-1.52s1.52.68,1.52,1.52c0,.57-.32,1.09-.84,1.35-.17.09-.26.29-.2.47l1.21,3.78h-3.38ZM21.89,21.52c.61-.43.98-1.12.98-1.88,0-1.27-1.03-2.3-2.31-2.3s-2.31,1.03-2.31,2.3c0,.76.37,1.45.98,1.88l-1.28,4c-.04.12-.02.25.06.35.07.1.19.16.32.16h4.46c.13,0,.24-.06.32-.16.08-.1.1-.23.06-.35l-1.28-4Z"/>
  </g>
</svg>