<?xml version="1.0" encoding="UTF-8"?>
<svg id="icons" xmlns="http://www.w3.org/2000/svg" version="1.1" viewBox="0 0 32.31 32.17">
  <!-- Generator: Adobe Illustrator 29.1.0, SVG Export Plug-In . SVG Version: 2.1.0 Build 142)  -->
  <defs>
    <style>
      .st0 {
        fill: #fff;
        opacity: .1;
      }

      .st1 {
        fill: none;
        stroke: #fff;
        stroke-linecap: round;
        stroke-linejoin: round;
      }
    </style>
  </defs>
  <path class="st0" d="M0,17.92C0,10.04,6.38,3.66,14.26,3.66s14.26,6.38,14.26,14.26-6.38,14.26-14.26,14.26S0,25.79,0,17.92"/>
  <path class="st1" d="M23.6,21.18h-3.62M18.39,4.2v-1.88M20.27,4.2c-.12,1.05-.83,5.73-5.86,6.91M15.69,5.25c.41,1.73,1.7,4.92,5.71,5.86M14.41,4.2h7.95M25.93,19.55c.33-.25.82-.42,1.33-.42,1.24,0,1.54.98,1.54,1.91v1.75c0,.4.02.8.07,1.12M19.09,23.91l1.02-2.99,1.19-3.51h1.01l2.22,6.5M26.39,12.86v-2.47l5.42-2.69-5.42-2.68V1.71c0-.67-.54-1.21-1.21-1.21h-13.4c-.67,0-1.21.55-1.21,1.21v12.37c0,.66.54,1.21,1.21,1.21h3.91M30.6,13h-13.4c-.66,0-1.21.54-1.21,1.21v3.69l-5.42,2.68,5.42,2.69v3.31c0,.67.54,1.21,1.21,1.21h13.4c.67,0,1.21-.54,1.21-1.21v-12.37c0-.67-.54-1.21-1.21-1.21ZM28.78,23.32c-.29.37-.85.7-1.59.7-1.05,0-1.59-.67-1.59-1.34,0-1.13,1.12-1.75,3.12-1.74"/>
</svg>