<?xml version="1.0" encoding="UTF-8"?>
<svg id="icons" xmlns="http://www.w3.org/2000/svg" version="1.1" viewBox="0 0 31.36 28.51">
  <!-- Generator: Adobe Illustrator 29.1.0, SVG Export Plug-In . SVG Version: 2.1.0 Build 142)  -->
  <defs>
    <style>
      .st0 {
        stroke-linejoin: round;
      }

      .st0, .st1 {
        fill: none;
        stroke: #fff;
      }

      .st1 {
        stroke-miterlimit: 10;
      }

      .st2 {
        fill: #fff;
        opacity: .1;
      }
    </style>
  </defs>
  <path class="st2" d="M0,14.26C0,6.38,6.38,0,14.26,0s14.25,6.38,14.25,14.26-6.38,14.26-14.25,14.26S0,22.13,0,14.26"/>
  <g>
    <path class="st1" d="M11.33,27.71v-9.6c0-.24.2-.44.44-.44h13.73c.24,0,.44.2.44.44v9.67M19.85,22.74c0,.66-.54,1.2-1.21,1.2s-1.21-.54-1.21-1.2.54-1.2,1.21-1.2,1.21.54,1.21,1.2ZM25.94,24.74h1.75c.29,0,.42.22.3.49l-1.85,2.37c-.21.27-.4.21-.65.21h-13.73c-.24,0-.37.05-.51-.18l-1.99-2.4c-.12-.27.01-.49.3-.49h1.75M25.95,23.08h5.42M7.38,23.08h3.95"/>
    <path class="st0" d="M10.86,9.52c3.58,2.42,6.16,2.49,6.16,2.49-.56-2.11-.83-3.47-.78-4.65.18-3.73,4.96-6.65,7.02-6.27,1.99.37,5.54,4.83,4.32,8.36-.26.76-.65,1.26-1.64,2.74,2.49.93,3.76,2.96,3.84,6.44v4.43M8.78,10.98c.89-.73,1.36-1.84,1.03-3.01-.4-1.44-1.83-2.36-3.01-2.18-.58.09-1.15.24-1.62.64-.82.7-.72,1.45-.28,2.99.28.99.53,1.95,1.12,2.31.73.45,1.81.03,2.76-.75ZM9.62,7.46l4.31-.59M8.28,6.07l5.44-.74.51,3.72-4.49.61M15.62,17.64s-5.42-.96-8.47-5.79M18.76,10.91l1.62,4.59,3.46-3.57M26.15,8.89c.43-2.31-1.1-4.52-3.41-4.95-2.31-.42-4.53,1.1-4.95,3.41-.42,2.31,1.1,4.52,3.41,4.95,2.31.42,4.53-1.1,4.95-3.41Z"/>
  </g>
</svg>