<?xml version="1.0" encoding="UTF-8"?>
<svg id="icons" xmlns="http://www.w3.org/2000/svg" version="1.1" viewBox="0 0 31.68 34.38">
  <!-- Generator: Adobe Illustrator 29.1.0, SVG Export Plug-In . SVG Version: 2.1.0 Build 142)  -->
  <defs>
    <style>
      .st0, .st1 {
        fill: #fff;
      }

      .st1 {
        opacity: .1;
      }
    </style>
  </defs>
  <path class="st1" d="M0,20.13C0,12.25,6.38,5.87,14.26,5.87s14.26,6.38,14.26,14.26-6.38,14.26-14.26,14.26S0,28,0,20.13"/>
  <g>
    <path class="st0" d="M11.49,6.75c-.82,0-1.49.67-1.49,1.49v13.38c0,.18-.1.34-.25.43-1.12.63-1.81,1.82-1.81,3.1,0,1.96,1.6,3.55,3.56,3.55s3.55-1.6,3.55-3.55c0-1.28-.69-2.47-1.81-3.1-.16-.09-.25-.25-.25-.43v-13.38c0-.82-.67-1.49-1.49-1.49M11.49,29.69c-2.51,0-4.55-2.04-4.55-4.55,0-1.54.78-2.97,2.06-3.81v-13.1c0-1.37,1.11-2.48,2.48-2.48s2.48,1.11,2.48,2.48v13.1c1.28.84,2.06,2.27,2.06,3.81,0,2.51-2.04,4.55-4.55,4.55"/>
    <path class="st0" d="M11.49,24.08c-.27,0-.5-.22-.5-.5v-14.98c0-.27.22-.49.5-.49s.5.22.5.49v14.98c0,.27-.22.5-.5.5"/>
    <path class="st0" d="M9.7,3.83c-.17,0-.33-.09-.43-.24l-1.19-2.01c-.14-.24-.06-.54.17-.68.24-.14.54-.06.68.17l1.2,2.01c.14.24.06.54-.17.68-.08.05-.17.07-.25.07"/>
    <path class="st0" d="M13.44,3.83c-.09,0-.17-.02-.25-.07-.23-.14-.31-.44-.17-.68l1.2-2.01c.14-.24.44-.31.68-.17.24.14.31.44.17.68l-1.19,2.01c-.09.16-.26.24-.43.24"/>
    <path class="st0" d="M11.57,3.83c-.27,0-.5-.22-.5-.5V.49c0-.27.22-.49.5-.49s.5.22.5.49v2.84c0,.27-.22.5-.5.5"/>
    <path class="st0" d="M20.06,29.27c-1.91,0-3.81-.47-5.48-1.37-.24-.13-.33-.43-.2-.67.13-.24.43-.33.67-.2,1.53.82,3.27,1.26,5.02,1.26,5.86,0,10.62-4.77,10.62-10.62s-4.77-10.62-10.62-10.62c-2.28,0-4.46.71-6.29,2.06-.22.16-.53.12-.69-.1-.16-.22-.12-.53.11-.69,2-1.48,4.38-2.25,6.88-2.25,6.4,0,11.62,5.21,11.62,11.62s-5.21,11.62-11.62,11.62"/>
    <path class="st0" d="M22.1,26.91v-2.68l-2.86-1.51-1.11-2.09.38-2.69h4.04l.82-.75-.13-.42-1.75-.31-2.2.74-.76-3.63,1.74-.32,1.16-.16v-1.1l1.77-2.56.37.16c.67.29,1.51.59,1.88.67.16-.35.43-1.23.61-1.96l.96.24c-.59,2.43-.93,2.59-1.11,2.67-.15.07-.47.22-2.35-.55l-1.14,1.64v1.65l-2,.27-.71.13.32,1.54,1.38-.46,2.6.46.49,1.6-1.57,1.44h-3.57l-.21,1.51.82,1.53,3.12,1.65v1.99l1.33-.34,1.19-2.78-1.07-3.15,1.76-2.52,3.31.15,1.06-.83.61.78-1.35,1.06-3.13-.15-1.16,1.66,1.03,3.03-1.53,3.57-3.04.78Z"/>
    <path class="st0" d="M13.05,25.14c0,.86-.7,1.56-1.56,1.56s-1.55-.7-1.55-1.56.7-1.55,1.55-1.55,1.56.7,1.56,1.55"/>
  </g>
</svg>