<?xml version="1.0" encoding="UTF-8"?>
<svg id="icons" xmlns="http://www.w3.org/2000/svg" version="1.1" viewBox="0 0 29.03 33.83">
  <!-- Generator: Adobe Illustrator 29.1.0, SVG Export Plug-In . SVG Version: 2.1.0 Build 142)  -->
  <defs>
    <style>
      .st0, .st1, .st2, .st3 {
        fill: none;
        stroke: #fff;
        stroke-width: .9px;
      }

      .st0, .st3 {
        stroke-linejoin: round;
      }

      .st1, .st2 {
        stroke-miterlimit: 10;
      }

      .st2, .st3 {
        stroke-linecap: round;
      }

      .st4 {
        fill: #fff;
        opacity: .1;
      }
    </style>
  </defs>
  <path class="st4" d="M0,19.57C0,11.7,6.38,5.32,14.26,5.32s14.26,6.38,14.26,14.26-6.38,14.26-14.26,14.26S0,27.45,0,19.57"/>
  <g>
    <g>
      <path class="st1" d="M25.18,26.61h1.62c.27,0,.39.21.28.46l-1.71,2.23c-.19.26-.37.19-.6.19h-12.69c-.23,0-.34.04-.47-.17l-1.84-2.25c-.11-.25,0-.46.28-.46h1.62M8.02,24.19h3.65M25.18,24.19h3.85"/>
      <path class="st0" d="M27.25,24.19v-3.14c0-3.22-3.14-6.41-8.83-6.41s-8.83,2.85-8.83,6.41v3.14"/>
      <path class="st1" d="M11.67,29.4v-9.01c0-.23.18-.41.41-.41h12.69c.23,0,.41.18.41.41v9.07"/>
    </g>
    <line class="st2" x1="18.3" y1="24.74" x2="18.54" y2="24.74"/>
    <path class="st0" d="M23.24,4.52l3.97-1.42L18.42.45l-8.79,2.65,3.97,1.42M13.61,6.97c1.14-.57,2.97-.85,4.8-.85s3.69.29,4.83.85v-2.44c-1.14-.56-2.99-.85-4.83-.85s-3.66.28-4.8.85v2.44Z"/>
    <line class="st3" x1="25.46" y1="3.79" x2="25.46" y2="7.27"/>
    <path class="st0" d="M13.61,6.98c-.14.46-.21.94-.21,1.45,0,2.77,2.25,5.02,5.03,5.02s5.02-2.25,5.02-5.02c0-.5-.07-.98-.21-1.43"/>
  </g>
</svg>