<?xml version="1.0" encoding="UTF-8"?>
<svg id="icons" xmlns="http://www.w3.org/2000/svg" version="1.1" viewBox="0 0 37.05 33.28">
  <!-- Generator: Adobe Illustrator 29.1.0, SVG Export Plug-In . SVG Version: 2.1.0 Build 142)  -->
  <defs>
    <style>
      .st0 {
        stroke-linecap: round;
      }

      .st0, .st1 {
        fill: none;
        stroke: #fff;
        stroke-linejoin: round;
        stroke-width: .74px;
      }

      .st2 {
        fill: #fff;
        opacity: .1;
      }
    </style>
  </defs>
  <path class="st2" d="M0,19.02C0,11.15,6.38,4.77,14.26,4.77s14.25,6.38,14.25,14.26-6.38,14.26-14.25,14.26S0,26.9,0,19.02"/>
  <g>
    <path class="st0" d="M11.44.37c-1.45.06-2.58,1.26-2.52,2.69M16.05,6.34c1.22-.58,1.73-2.03,1.14-3.23"/>
    <path class="st1" d="M28.53,13.65l-6.85.85c-.63.09-1.16.52-1.37,1.11-.21.59-.06,1.25.38,1.7l4.61,4.76-1.27,5.52M32.44,25.36l-.33,2.23M36.07,27.59l.47-2.33c.55-2.31-.44-3.9-2.7-4.9-1.96-.87-6.99-2.6-8.11-2.98l1.22-.37M17.37,11.27l-3.95-1.19.31-3.95,1.71-1.49c.15-.13.21-.34.16-.53l-.49-1.83c-.05-.18-.19-.33-.38-.38-.03,0-.91-.25-1.96-.16-.97.08-1.74.46-1.78.48-.18.09-.3.27-.3.47v3.05s-1.51,5.96-1.51,5.96c-.11.45.15.97.57,1.17l5.46,3.17-1.61,7.98"/>
    <path class="st0" d="M29.22,18.65c-.78-.72-1.27-1.74-1.27-2.88,0-2.17,1.79-3.93,4.01-3.93s4.01,1.76,4.01,3.93-1.72,3.86-3.88,3.93M26.44,9.06c0-2.2-1.86-3.99-4.16-3.99s-4.15,1.79-4.15,3.99,1.86,3.99,4.15,3.99,4.16-1.79,4.16-3.99Z"/>
  </g>
</svg>