<?xml version="1.0" encoding="UTF-8"?>
<svg id="Layer_1" xmlns="http://www.w3.org/2000/svg" version="1.1" viewBox="0 0 1920 1920">
  <!-- Generator: Adobe Illustrator 29.3.0, SVG Export Plug-In . SVG Version: 2.1.0 Build 146)  -->
  <defs>
    <style>
      .st0 {
        stroke: #000;
        stroke-miterlimit: 10;
      }

      .st0, .st1 {
        fill: none;
      }
    </style>
  </defs>
  <path class="st0" d="M1404.13,943.67l97.34,18.08-96.92,16.6c-4.5,127.13-61.77,239.18-157.01,321.41-76.34,65.9-168.48,100.19-269.46,105.07l-17.23,95.66-17.44-96.08c-99.69-3.31-191.52-38.64-267.27-102.77-98.54-83.42-144.53-180.5-158.43-308.45-.53-4.92,1.28-10.4-1.89-14.78l-94.32-17.28,96.04-17.49c3.06-92.59,33.29-179.05,90.01-251.81,74.99-96.21,175.42-155.1,297.06-171.1,5.87-.77,36.85-2.5,38.64-4.33l17.62-95.91,17.23,96.94c78,3.69,152.28,24.69,218.02,66.72,123.68,79.08,203.74,211.07,208.03,359.54Z"/>
  <path class="st0" d="M1034.58,877.1l-71.81-406.59.17,378.84c.86,2.62,15.04,2.87,19.32,3.77,11.7,2.46,23.39,6.66,33.95,12.23l18.37,11.76Z"/>
  <path class="st0" d="M942.24,523.11c-37.76,1.08-75.48,7.78-111.58,18.59-5.92,1.77-29.96,8.9-33.34,11.55-3.12,2.45,5.04,19.84,8.07,19.67,42.16-16.32,86.84-27.12,132.19-29.48l1.91-1.94,2.75-18.4Z"/>
  <path class="st0" d="M979.44,523.11c.85,3.93,1.52,19.22,4.69,20.31,6.63,2.28,21.07,1.81,29.12,2.95,35.28,4.98,69.81,14.04,103.05,26.57l2.28-1.09,6.9-17.36c-46-19.2-96.08-29.96-146.04-31.38Z"/>
  <path class="st0" d="M790.88,556.45c-51.2,20.8-97.07,52.87-137.31,90.39-1.24,1.11-1.41,1.74-.64,3.23,1.14,2.2,12.84,13.32,15.21,12.7,1.37-.36,17.54-16.37,20.81-19.07,32.62-26.97,68.65-49.55,107.09-67.37,3.74-3.94-5.65-14.57-5.16-19.89Z"/>
  <path class="st0" d="M1130.81,556.45l-7.17,19.27c40.24,17.68,76.55,41.38,110.37,69.26,3.22,2.65,18.87,18.4,21.22,17.33l14.06-14.16c-40.57-38.02-86.91-70.36-138.48-91.71Z"/>
  <path class="st0" d="M933.25,568c-171.44,12.88-316.93,135.26-355.69,302.93-4.14,17.91-8.85,41.6-9.57,59.8-.06,1.44-.69,2.39.99,3.5l201.36-35.96-76.93-69.27,97.47,17.31-91.05-147.49,146.19,92.35-17.31-97.47c20.93,21.02,38.52,45.31,58.99,66.71,1.38,1.44,10.86,11.78,12.2,10.24l33.35-202.64Z"/>
  <path class="st0" d="M1352.69,933.55c-7.66-130.83-83.64-249.81-196.67-314.47-51.86-29.67-109.22-46.15-168.88-51.08l34.63,202.64c1.28,1.52,8.44-6.42,9.63-7.67,21.06-22.07,39.23-47.14,60.28-69.27,3.26-1.44.45,7.86.21,9.2-5.25,29.5-12.29,58.76-17.54,88.26l147.48-91.06-92.34,147.49,98.75-18.59-78.23,71.18,202.66,33.37Z"/>
  <path class="st0" d="M576.62,797.52c19.41-48,50.41-91.39,85.92-129.01-3.37-6.7-9.37-10.86-14.66-15.84-38.43,40.16-70.77,86.82-91.71,138.49l20.46,6.36Z"/>
  <path class="st0" d="M1364.12,791.04c1.69-2.35-15.73-35.91-18.47-40.94-19.34-35.52-44.36-69.05-73.14-97.43l-14.73,14.73c36.21,37.82,67.12,81.57,87.33,130.08l19.01-6.44Z"/>
  <path class="st0" d="M892.21,812.98c-1.08-8.67,7.29-27.57,4.45-34.58l-50.6-56.49,46.16,91.07Z"/>
  <polygon class="st0" points="880.66 877.11 889.08 825.83 729.32 725.77 880.66 877.11"/>
  <path class="st0" d="M1035.87,815.53c1.43,1.17,28.16-16.45,31.39-19.26l13.49-70.51-44.88,89.77Z"/>
  <polygon class="st0" points="1044.85 880.94 1092.05 889.69 1096.24 888.11 1194.91 730.89 1044.85 880.94"/>
  <path class="st0" d="M543.17,938.5c2.45-35.3,8.98-69.58,19.07-103.42,1.83-6.13,10.19-25.52,10.4-29.42s-14.15-7.28-17.38-9.18l-2.28,1.09c-17.37,46.18-29.31,95.35-30.16,144.94l20.34-4.02Z"/>
  <path class="st0" d="M1398.85,942.52c-2.61-44.86-9.98-90.58-25.62-132.77-.87-2.36-3.72-11.16-4.51-12.17-2.61-3.34-16.13,4.73-19.98,5.92,15.17,42.32,26.2,86.29,28.91,131.44l2.25,4.16,18.95,3.42Z"/>
  <path class="st0" d="M815.26,884.79c-7.07-10.01-11.99-22.65-20.84-31.09l-70.22-13.77,91.06,44.87Z"/>
  <path class="st0" d="M1200.05,846.34l-92.35,46.15c9.74-1.41,28.76,7.68,36.87,4.17l55.48-50.32Z"/>
  <path class="st0" d="M956.08,860.82c-83.7,4.19-126.84,103.12-70.94,166.37,44.73,50.61,126.8,43.87,161.52-14.23,41.17-68.89-10.79-156.14-90.59-152.15Z"/>
  <path class="st0" d="M470.23,957.91h379.02c2.96-5.03,2.41-12.93,3.8-19.28,4.09-18.69,11.69-35.83,23.77-50.63l-1.93-.67-404.65,70.58Z"/>
  <path class="st0" d="M1450.16,964.33h-376.45c-.32,0-.76-1.03-1.28-.99l-1.77,1.78c.38,15.3-4.37,29.83-10.19,43.68l-16.24,26.09,405.94-70.56Z"/>
  <path class="st0" d="M553.62,1125.94l19.12-8.54c-16.02-42.44-27.56-87.24-29.56-133.03-1.15-3.38-16.41-3.34-20.35-4.65,1.45,49.8,12.05,100.13,30.79,146.21Z"/>
  <path class="st0" d="M1398.85,979.72c-4.61,1.03-18.13,1.23-20.32,4.69s-2.1,21.96-2.93,27.86c-5.04,35.96-14.71,71.14-26.67,105.14l18.41,8.59c20.64-45.72,28.62-96.35,31.51-146.28Z"/>
  <path class="st0" d="M770.36,1022.05l-200.78-34.44-1.61,2.67c13.2,192.25,173.33,353.64,366.56,362.67l-36.55-202.62-68,76.92,16.04-96.18-147.5,91.05,93.63-147.48-98.76,17.32c22.63-21.41,48.02-40.09,70.56-61.56,1.12-1.07,7.84-7.03,6.39-8.35Z"/>
  <path class="st0" d="M1352.68,987.41l-202.64,34.64,78.23,71.19-97.47-18.6,91.06,147.48-147.5-91.05,18.6,97.47-71.18-78.23-34.64,202.65c192.28-8.6,356.65-173.3,365.54-365.54Z"/>
  <path class="st0" d="M812.69,1029.75c-8.98.13-27.98-7.47-35.59-4.17l-54.19,49.04,89.78-44.87Z"/>
  <path class="st0" d="M875.54,1040.01c-14.86.16-31.42-6.72-45.73-7.63-1.86-.12-3.54-.36-5.01,1.12l-98.02,156.57,148.77-150.06Z"/>
  <path class="st0" d="M1198.76,1081.06l-93.62-44.9c6.54,10.85,12.92,22.51,21.42,31.79,22.33,3.84,45.77,11.04,68.07,14.03,1.39.19,4.42,1.42,4.13-.92Z"/>
  <path class="st0" d="M957.63,1070.78c-18.33.83-36.24-5.33-52.17-13.89l-19.66-13.03,71.83,407.86v-380.94Z"/>
  <polygon class="st0" points="1189.79 1195.19 1039.73 1046.42 1032.09 1093.43 1033.2 1097.17 1189.79 1195.19"/>
  <polygon class="st0" points="884.52 1106.71 853.14 1125.98 839.64 1197.76 884.52 1106.71"/>
  <path class="st0" d="M1074.34,1199.05l-44.23-89.78c-1.94,1.19-1.54,2.75-1.92,4.5-1.22,5.65-4.93,27.33-3.19,31.39l49.34,53.89Z"/>
  <path class="st0" d="M556.17,1131.09c18.82,43.41,45.38,88.2,77.58,123.13,2.17,2.35,11.76,12.63,13.5,13.53,1.23.63,1.31.63,2.54,0,1.5-.77,12.95-12.81,12.74-14.01-35.6-37.89-65.75-81.19-86.51-129.06l-1.24-1.26-18.61,7.68Z"/>
  <path class="st0" d="M1345.01,1123.37c-18.86,49.01-51.07,91.55-85.82,130.37,2.56,7.2,9.33,10.98,14.62,15.83,33.69-37.28,66.66-79.85,86.4-126.5,1.07-2.54,4.97-10,3.49-12.06l-18.68-7.64Z"/>
  <path class="st0" d="M790.76,1364.4c.56-4.15,8.99-16.87,5.27-19.77-3.52-2.74-19.74-8.41-25.69-11.52-37.34-19.54-71.14-45.24-102.12-73.64-2.61-.45-15.74,12.05-15.53,14.63,28.54,27.01,60.08,51.4,94.57,70.55,5.37,2.98,40.92,21.62,43.51,19.75Z"/>
  <path class="st0" d="M1253.54,1259.47c-1.59.42-20.99,18.68-24.66,21.64-32.45,26.13-67.31,48.02-105.24,65.42,3.03,4.93,4.31,19.5,11.02,17.43,9.68-2.98,26.06-12.08,35.47-17.18,36.06-19.56,70.06-45.15,99.16-73.97-3.49-2.45-11.84-14.36-15.75-13.33Z"/>
  <path class="st0" d="M938.12,1378.87c-34.94-2.89-68.51-9.17-102.04-19.15-4.63-1.38-32.24-11.69-33.58-10.53l-6.5,17.31,1.31,2.49c45.89,18.68,95.46,27.91,144.92,30.15l-4.11-20.26Z"/>
  <path class="st0" d="M1125.64,1368.29l-8.52-19.05c-31.65,11.02-64.08,20.31-97.49,25.31-6.18.93-32.93,2.63-35.5,4.26-.84.53-1.69.83-1.88,1.97l-2.81,18.35c49.94-2.04,99.82-12.37,146.2-30.84Z"/>
  <path class="st1" d="M950.95,880.05c82.44-8.5,124.31,93.72,61.16,144.53-36.14,29.08-86.28,22.38-115.42-12.78-40.16-48.45-8.1-125.32,54.26-131.75Z"/>
</svg>