<svg xmlns="http://www.w3.org/2000/svg" width="500" height="500" viewBox="0 0 500 500">
<g aria-label="density" fill="none" stroke="#fff" stroke-opacity="0.5" stroke-miterlimit="1"><path d="M379.276,641.493L381.493,641.152L385.493,640.378L389.493,639.416L393.493,638.235L395.596,637.493L397.493,636.842L401.493,635.205L404.954,633.493L405.493,633.228L409.493,630.959L411.728,629.493L413.493,628.321L417.326,625.493L417.493,625.367L421.493,622.182L422.314,621.493L425.493,618.728L426.847,617.493L429.493,614.969L430.977,613.493L433.493,610.863L434.759,609.493L437.493,606.366L438.235,605.493L441.441,601.493L441.493,601.425L444.446,597.493L445.493,596.01L447.248,593.493L449.493,590.067L449.867,589.493L452.378,585.493L453.493,583.624L454.767,581.493L457.053,577.493L457.493,576.706L459.309,573.493L461.493,569.504L461.499,569.493L463.748,565.493L465.493,562.352L465.981,561.493L468.288,557.493L469.493,555.423L470.647,553.493L473.072,549.493L473.493,548.816L475.626,545.493L477.493,542.617L478.25,541.493L480.996,537.493L481.493,536.786L483.902,533.493L485.493,531.347L486.928,529.493L489.493,526.216L490.084,525.493L493.383,521.493L493.493,521.361L496.847,517.493L497.493,516.744L500.401,513.493L501.493,512.254L504.005,509.493L505.493,507.815L507.606,505.493L509.493,503.349L511.149,501.493L513.493,498.754L514.573,497.493L517.493,493.907L517.828,493.493L520.918,489.493L521.493,488.707L523.831,485.493L525.493,483.047L526.548,481.493L529.087,477.493L529.493,476.813L531.488,473.493L533.493,469.801L533.662,469.493L535.712,465.493L537.493,461.588L537.537,461.493L539.299,457.493L540.893,453.493L541.493,451.865L542.4,449.493L543.806,445.493L545.075,441.493L545.493,440.066L546.285,437.493L547.414,433.493L548.434,429.493L549.357,425.493L549.493,424.86L550.26,421.493L551.092,417.493L551.846,413.493L552.527,409.493L553.141,405.493L553.493,402.962L553.713,401.493L554.258,397.493L554.748,393.493L555.195,389.493L555.606,385.493L555.988,381.493L556.349,377.493L556.696,373.493L557.041,369.493L557.396,365.493L557.493,364.443L557.789,361.493L558.183,357.493L558.542,353.493L558.862,349.493L559.15,345.493L559.41,341.493L559.648,337.493L559.865,333.493L560.064,329.493L560.246,325.493L560.412,321.493L560.561,317.493L560.693,313.493L560.806,309.493L560.895,305.493L560.953,301.493L560.967,297.493L560.929,293.493L560.82,289.493L560.625,285.493L560.331,281.493L559.926,277.493L559.394,273.493L558.716,269.493L557.868,265.493L557.493,264.028L556.854,261.493L555.648,257.493L554.242,253.493L553.493,251.56L552.689,249.493L550.975,245.493L549.493,242.4L549.051,241.493L546.935,237.493L545.493,235.042L544.559,233.493L541.91,229.493L541.493,228.907L538.987,225.493L537.493,223.618L535.748,221.493L533.493,218.92L532.206,217.493L529.493,214.621L528.403,213.493L525.493,210.557L524.423,209.493L521.493,206.573L520.405,205.493L517.493,202.501L516.523,201.493L513.493,198.114L512.953,197.493L509.839,193.493L509.493,192.982L507.275,189.493L505.493,186.073L505.214,185.493L503.711,181.493L502.644,177.493L501.977,173.493L501.664,169.493L501.66,165.493L501.919,161.493L502.395,157.493L503.008,153.493L503.663,149.493L504.307,145.493L504.927,141.493L505.493,137.693L505.524,137.493L506.133,133.493L506.7,129.493L507.214,125.493L507.664,121.493L508.04,117.493L508.333,113.493L508.539,109.493L508.657,105.493L508.68,101.493L508.601,97.493L508.411,93.493L508.102,89.493L507.666,85.493L507.093,81.493L506.373,77.493L505.493,73.493L505.493,73.491L504.509,69.493L503.341,65.493L501.967,61.493L501.493,60.278L500.434,57.493L498.68,53.493L497.493,51.11L496.699,49.493L494.495,45.493L493.493,43.859L492.044,41.493L489.493,37.791L489.285,37.493L486.232,33.493L485.493,32.613L482.769,29.493L481.493,28.151L478.786,25.493L477.493,24.306L474.118,21.493L473.493,20.996L469.493,18.125L468.498,17.493L465.493,15.621L461.505,13.493L461.493,13.486L457.493,11.583L453.493,9.979L452.095,9.493L449.493,8.566L445.493,7.342L441.493,6.304L437.81,5.493L437.493,5.419L433.493,4.619L429.493,3.948L425.493,3.391L421.493,2.939L417.493,2.58L413.493,2.309L409.493,2.124L405.493,2.033L401.493,2.053L397.493,2.197L393.493,2.473L389.493,2.89L385.493,3.458L381.493,4.18L377.493,5.05L375.7,5.493L373.493,6.003L369.493,7.026L365.493,8.15L361.493,9.375L361.124,9.493L357.493,10.593L353.493,11.889L349.493,13.274L348.883,13.493L345.493,14.654L341.493,16.119L338.018,17.493L337.493,17.692L333.493,19.289L329.493,21.038L328.513,21.493L325.493,22.848L321.493,24.809L320.193,25.493L317.493,26.876L313.493,29.131L312.894,29.493L309.493,31.516L306.482,33.493L305.493,34.137L301.493,36.93L300.727,37.493L297.493,39.868L295.393,41.493L293.493,42.97L290.373,45.493L289.493,46.212L285.586,49.493L285.493,49.572L281.493,53.001L280.925,53.493L277.493,56.528L276.416,57.493L273.493,60.178L272.084,61.493L269.493,63.983L267.95,65.493L265.493,67.978L264.024,69.493L261.493,72.208L260.322,73.493L257.493,76.744L256.857,77.493L253.625,81.493L253.493,81.664L250.588,85.493L249.493,87.03L247.772,89.493L245.493,92.995L245.171,93.493L242.695,97.493L241.493,99.575L240.374,101.493L238.186,105.493L237.493,106.835L236.09,109.493L234.133,113.493L233.493,114.878L232.247,117.493L230.473,121.493L229.493,123.86L228.789,125.493L227.161,129.493L225.662,133.493L225.493,133.964L224.16,137.493L222.756,141.493L221.493,145.371L221.451,145.493L220.102,149.493L218.79,153.493L217.493,157.359L217.445,157.493L215.877,161.493L214.219,165.493L213.493,167.132L212.388,169.493L210.432,173.493L209.493,175.332L208.331,177.493L206.123,181.493L205.493,182.593L203.749,185.493L201.493,189.226L201.323,189.493L198.683,193.493L197.493,195.283L195.943,197.493L193.493,200.983L193.114,201.493L190.092,205.493L189.493,206.278L186.888,209.493L185.493,211.202L183.502,213.493L181.493,215.767L179.87,217.493L177.493,219.955L175.916,221.493L173.493,223.77L171.539,225.493L169.493,227.218L166.584,229.493L165.493,230.302L161.493,232.984L160.626,233.493L157.493,235.218L153.493,237.128L152.594,237.493L149.493,238.666L145.493,240.032L141.493,241.338L140.998,241.493L137.493,242.512L133.493,243.67L129.493,244.842L127.278,245.493L125.493,245.983L121.493,247.084L117.493,248.219L113.493,249.407L113.21,249.493L109.493,250.551L105.493,251.756L101.493,253.044L100.162,253.493L97.493,254.348L93.493,255.721L89.493,257.213L88.778,257.493L85.493,258.726L81.493,260.363L78.96,261.493L77.493,262.128L73.493,264.006L70.629,265.493L69.493,266.073L65.493,268.282L63.49,269.493L61.493,270.696L57.493,273.346L57.284,273.493L53.493,276.179L51.786,277.493L49.493,279.289L46.879,281.493L45.493,282.697L42.477,285.493L41.493,286.452L38.539,289.493L37.493,290.658L35.054,293.493L33.493,295.515L32.014,297.493L29.493,301.331L29.389,301.493L27.055,305.493L25.493,308.578L25.032,309.493L23.216,313.493L21.642,317.493L21.493,317.912L20.197,321.493L18.925,325.493L17.806,329.493L17.493,330.723L16.765,333.493L15.818,337.493L14.981,341.493L14.249,345.493L13.627,349.493L13.493,350.54L13.09,353.493L12.675,357.493L12.399,361.493L12.264,365.493L12.27,369.493L12.416,373.493L12.705,377.493L13.141,381.493L13.493,383.871L13.717,385.493L14.418,389.493L15.266,393.493L16.241,397.493L17.323,401.493L17.493,402.081L18.433,405.493L19.641,409.493L20.979,413.493L21.493,414.906L22.401,417.493L23.958,421.493L25.493,424.998L25.705,425.493L27.586,429.493L29.493,433.038L29.737,433.493L32.104,437.493L33.493,439.571L34.801,441.493L37.493,445.016L37.87,445.493L41.347,449.493L41.493,449.648L45.296,453.493L45.493,453.679L49.493,457.247L49.788,457.493L53.493,460.454L54.913,461.493L57.493,463.341L60.822,465.493L61.493,465.923L65.493,468.29L67.777,469.493L69.493,470.404L73.493,472.312L76.299,473.493L77.493,474.006L81.493,475.561L85.493,476.913L87.433,477.493L89.493,478.134L93.493,479.228L97.493,480.16L101.493,480.944L104.869,481.493L105.493,481.601L109.493,482.171L113.493,482.612L117.493,482.932L121.493,483.135L125.493,483.225L129.493,483.204L133.493,483.073L137.493,482.835L141.493,482.496L145.493,482.061L149.493,481.531L149.739,481.493L153.493,480.961L157.493,480.308L161.493,479.567L165.493,478.733L169.493,477.805L170.734,477.493L173.493,476.848L177.493,475.838L181.493,474.745L185.493,473.575L185.769,473.493L189.493,472.448L193.493,471.292L197.493,470.129L199.78,469.493L201.493,469.041L205.493,468.081L209.493,467.237L213.493,466.552L217.493,466.07L221.493,465.838L225.493,465.924L229.493,466.414L233.493,467.416L237.493,469.058L238.248,469.493L241.493,471.743L243.381,473.493L245.493,475.87L246.651,477.493L249,481.493L249.493,482.509L250.726,485.493L252.086,489.493L253.193,493.493L253.493,494.803L254.038,497.493L254.71,501.493L255.268,505.493L255.744,509.493L256.164,513.493L256.55,517.493L256.923,521.493L257.306,525.493L257.493,527.301L257.703,529.493L258.13,533.493L258.612,537.493L259.161,541.493L259.786,545.493L260.499,549.493L261.311,553.493L261.493,554.302L262.178,557.493L263.142,561.493L264.226,565.493L265.447,569.493L265.493,569.631L266.735,573.493L268.184,577.493L269.493,580.724L269.798,581.493L271.53,585.493L273.493,589.491L273.493,589.493L275.596,593.493L277.493,596.685L277.974,597.493L280.588,601.493L281.493,602.753L283.494,605.493L285.493,607.988L286.729,609.493L289.493,612.599L290.314,613.493L293.493,616.723L294.281,617.493L297.493,620.454L298.679,621.493L301.493,623.85L303.587,625.493L305.493,626.941L309.172,629.493L309.493,629.711L313.493,632.186L315.987,633.493L317.493,634.285L321.493,636.073L325.35,637.493L325.493,637.546L329.493,638.839L333.493,639.899L337.493,640.759L341.493,641.446L341.834,641.493L345.493,642.017L349.493,642.445L353.493,642.737L357.493,642.899L361.493,642.935L365.493,642.846L369.493,642.629L373.493,642.277L377.493,641.781Z"></path><path d="M383.154,613.493L385.493,612.838L389.493,611.455L393.493,609.756L394.019,609.493L397.493,607.715L401.104,605.493L401.493,605.245L405.493,602.286L406.428,601.493L409.493,598.756L410.771,597.493L413.493,594.641L414.527,593.493L417.493,589.995L417.908,589.493L421.043,585.493L421.493,584.886L423.991,581.493L425.493,579.329L426.763,577.493L429.39,573.493L429.493,573.332L431.948,569.493L433.493,566.988L434.42,565.493L436.852,561.493L437.493,560.431L439.281,557.493L441.493,553.827L441.697,553.493L444.164,549.493L445.493,547.351L446.659,545.493L449.195,541.493L449.493,541.033L451.81,537.493L453.493,534.963L454.482,533.493L457.232,529.493L457.493,529.125L460.094,525.493L461.493,523.584L463.043,521.493L465.493,518.259L466.081,517.493L469.208,513.493L469.493,513.134L472.417,509.493L473.493,508.161L475.668,505.493L477.493,503.255L478.943,501.493L481.493,498.378L482.225,497.493L485.489,493.493L485.493,493.488L488.744,489.493L489.493,488.55L491.935,485.493L493.493,483.478L495.036,481.493L497.493,478.199L498.022,477.493L500.891,473.493L501.493,472.605L503.611,469.493L505.493,466.495L506.125,465.493L508.484,461.493L509.493,459.655L510.688,457.493L512.744,453.493L513.493,451.929L514.671,449.493L516.451,445.493L517.493,442.938L518.092,441.493L519.629,437.493L521.021,433.493L521.493,432.023L522.327,429.493L523.536,425.493L524.631,421.493L525.493,418.035L525.633,417.493L526.594,413.493L527.468,409.493L528.263,405.493L528.984,401.493L529.493,398.371L529.643,397.493L530.266,393.493L530.828,389.493L531.335,385.493L531.795,381.493L532.217,377.493L532.609,373.493L532.984,369.493L533.357,365.493L533.493,364.05L533.747,361.493L534.119,357.493L534.431,353.493L534.68,349.493L534.871,345.493L535.012,341.493L535.105,337.493L535.153,333.493L535.158,329.493L535.12,325.493L535.038,321.493L534.909,317.493L534.727,313.493L534.484,309.493L534.169,305.493L533.769,301.493L533.493,299.242L533.283,297.493L532.705,293.493L532.006,289.493L531.167,285.493L530.167,281.493L529.493,279.175L529.004,277.493L527.659,273.493L526.068,269.493L525.493,268.229L524.223,265.493L522.044,261.493L521.493,260.594L519.523,257.493L517.493,254.612L516.669,253.493L513.527,249.493L513.493,249.45L510.104,245.493L509.493,244.811L506.369,241.493L505.493,240.595L502.315,237.493L501.493,236.709L497.96,233.493L497.493,233.072L493.493,229.596L493.37,229.493L489.493,226.153L488.725,225.493L485.493,222.612L484.278,221.493L481.493,218.762L480.278,217.493L477.493,214.294L476.849,213.493L474.047,209.493L473.493,208.55L471.866,205.493L470.209,201.493L469.493,199.097L469.061,197.493L468.37,193.493L468.032,189.493L467.994,185.493L468.211,181.493L468.64,177.493L469.241,173.493L469.493,172.167L470.018,169.493L470.93,165.493L471.935,161.493L473.009,157.493L473.493,155.758L474.15,153.493L475.285,149.493L476.345,145.493L477.326,141.493L477.493,140.769L478.283,137.493L479.166,133.493L479.961,129.493L480.657,125.493L481.248,121.493L481.493,119.439L481.738,117.493L482.114,113.493L482.352,109.493L482.451,105.493L482.405,101.493L482.208,97.493L481.854,93.493L481.493,90.702L481.341,89.493L480.677,85.493L479.831,81.493L478.789,77.493L477.529,73.493L477.493,73.393L476.061,69.493L474.324,65.493L473.493,63.821L472.286,61.493L469.895,57.493L469.493,56.889L467.066,53.493L465.493,51.536L463.696,49.493L461.493,47.222L459.621,45.493L457.493,43.677L454.583,41.493L453.493,40.725L449.493,38.246L448.096,37.493L445.493,36.147L441.493,34.364L439.227,33.493L437.493,32.841L433.493,31.538L429.493,30.436L425.493,29.509L425.407,29.493L421.493,28.715L417.493,28.062L413.493,27.535L409.493,27.129L405.493,26.85L401.493,26.715L397.493,26.735L393.493,26.922L389.493,27.284L385.493,27.831L381.493,28.565L377.493,29.474L377.422,29.493L373.493,30.486L369.493,31.627L365.493,32.891L363.73,33.493L361.493,34.236L357.493,35.654L353.493,37.172L352.684,37.493L349.493,38.728L345.493,40.368L342.905,41.493L341.493,42.095L337.493,43.896L334.199,45.493L333.493,45.83L329.493,47.845L326.464,49.493L325.493,50.016L321.493,52.305L319.562,53.493L317.493,54.76L313.493,57.412L313.378,57.493L309.493,60.234L307.845,61.493L305.493,63.3L302.83,65.493L301.493,66.604L298.212,69.493L297.493,70.135L293.907,73.493L293.493,73.889L289.857,77.493L289.493,77.864L286.017,81.493L285.493,82.059L282.353,85.493L281.493,86.47L278.845,89.493L277.493,91.106L275.494,93.493L273.493,96.002L272.304,97.493L269.493,101.213L269.281,101.493L266.381,105.493L265.493,106.792L263.645,109.493L261.493,112.862L261.09,113.493L258.655,117.493L257.493,119.533L256.377,121.493L254.244,125.493L253.493,126.99L252.236,129.493L250.365,133.493L249.493,135.485L248.603,137.493L246.942,141.493L245.493,145.275L245.407,145.493L243.889,149.493L242.436,153.493L241.493,156.054L240.942,157.493L239.309,161.493L237.587,165.493L237.493,165.695L235.664,169.493L233.674,173.493L233.493,173.836L231.5,177.493L229.493,181.106L229.271,181.493L226.886,185.493L225.493,187.793L224.436,189.493L221.908,193.493L221.493,194.132L219.258,197.493L217.493,200.139L216.566,201.493L213.81,205.493L213.493,205.945L210.941,209.493L209.493,211.502L208.021,213.493L205.493,216.894L205.035,217.493L201.926,221.493L201.493,222.04L198.674,225.493L197.493,226.922L195.29,229.493L193.493,231.56L191.743,233.493L189.493,235.937L187.992,237.493L185.493,240.037L183.984,241.493L181.493,243.847L179.646,245.493L177.493,247.368L174.893,249.493L173.493,250.612L169.626,253.493L169.493,253.59L165.493,256.232L163.387,257.493L161.493,258.595L157.493,260.641L155.572,261.493L153.493,262.38L149.493,263.884L145.493,265.288L144.88,265.493L141.493,266.58L137.493,267.851L133.493,269.136L132.39,269.493L129.493,270.395L125.493,271.673L121.493,273.004L120.068,273.493L117.493,274.349L113.493,275.744L109.493,277.235L108.83,277.493L105.493,278.764L101.493,280.402L99.006,281.493L97.493,282.152L93.493,284.009L90.532,285.493L89.493,286.021L85.493,288.174L83.216,289.493L81.493,290.529L77.493,293.12L76.95,293.493L73.493,296.015L71.612,297.493L69.493,299.282L67.042,301.493L65.493,303.005L63.088,305.493L61.493,307.292L59.637,309.493L57.493,312.288L56.605,313.493L53.925,317.493L53.493,318.198L51.53,321.493L49.493,325.35L49.418,325.493L47.505,329.493L45.817,333.493L45.493,334.339L44.286,337.493L42.931,341.493L41.756,345.493L41.493,346.532L40.729,349.493L39.878,353.493L39.218,357.493L38.75,361.493L38.473,365.493L38.38,369.493L38.47,373.493L38.743,377.493L39.204,381.493L39.861,385.493L40.72,389.493L41.493,392.455L41.757,393.493L42.925,397.493L44.238,401.493L45.493,404.925L45.699,405.493L47.288,409.493L49.084,413.493L49.493,414.321L51.08,417.493L53.353,421.493L53.493,421.716L55.924,425.493L57.493,427.656L58.886,429.493L61.493,432.574L62.318,433.493L65.493,436.702L66.337,437.493L69.493,440.212L71.124,441.493L73.493,443.229L76.927,445.493L77.493,445.847L81.493,448.147L84.13,449.493L85.493,450.17L89.493,451.965L93.411,453.493L93.493,453.524L97.493,454.925L101.493,456.128L105.493,457.151L107.065,457.493L109.493,458.033L113.493,458.771L117.493,459.357L121.493,459.798L125.493,460.102L129.493,460.27L133.493,460.306L137.493,460.215L141.493,460.004L145.493,459.68L149.493,459.243L153.493,458.695L157.493,458.035L160.318,457.493L161.493,457.279L165.493,456.453L169.493,455.524L173.493,454.497L177.081,453.493L177.493,453.383L181.493,452.251L185.493,451.047L189.493,449.782L190.392,449.493L193.493,448.544L197.493,447.311L201.493,446.087L203.507,445.493L205.493,444.938L209.493,443.891L213.493,442.929L217.493,442.072L220.69,441.493L221.493,441.356L225.493,440.836L229.493,440.496L233.493,440.366L237.493,440.474L241.493,440.839L245.493,441.476L245.566,441.493L249.493,442.51L253.493,443.883L257.252,445.493L257.493,445.612L261.493,447.996L263.636,449.493L265.493,451.044L268.041,453.493L269.493,455.231L271.165,457.493L273.427,461.493L273.493,461.645L274.972,465.493L276.17,469.493L277.144,473.493L277.493,475.214L277.917,477.493L278.543,481.493L279.072,485.493L279.52,489.493L279.897,493.493L280.216,497.493L280.492,501.493L280.745,505.493L280.995,509.493L281.259,513.493L281.493,516.673L281.55,517.493L281.87,521.493L282.246,525.493L282.692,529.493L283.22,533.493L283.839,537.493L284.558,541.493L285.391,545.493L285.493,545.924L286.307,549.493L287.348,553.493L288.533,557.493L289.493,560.383L289.854,561.493L291.295,565.493L292.922,569.493L293.493,570.768L294.705,573.493L296.692,577.493L297.493,578.96L298.886,581.493L301.334,585.493L301.493,585.732L304.049,589.493L305.493,591.42L307.131,593.493L309.493,596.231L310.686,597.493L313.493,600.244L314.946,601.493L317.493,603.55L320.313,605.493L321.493,606.27L325.493,608.521L327.549,609.493L329.493,610.391L333.493,611.94L337.493,613.202L338.621,613.493L341.493,614.231L345.493,615.041L349.493,615.648L353.493,616.067L357.493,616.308L361.493,616.375L365.493,616.269L369.493,615.985L373.493,615.516L377.493,614.847L381.493,613.958Z"></path><path d="M370.809,593.493L373.493,593.05L377.493,592.103L381.493,590.84L384.844,589.493L385.493,589.222L389.493,587.187L392.241,585.493L393.493,584.685L397.493,581.625L397.642,581.493L401.493,577.892L401.867,577.493L405.412,573.493L405.493,573.397L408.475,569.493L409.493,568.09L411.268,565.493L413.493,562.093L413.877,561.493L416.375,557.493L417.493,555.661L418.824,553.493L421.246,549.493L421.493,549.084L423.696,545.493L425.493,542.56L426.157,541.493L428.67,537.493L429.493,536.204L431.252,533.493L433.493,530.116L433.912,529.493L436.687,525.493L437.493,524.37L439.58,521.493L441.493,518.95L442.595,517.493L445.493,513.793L445.728,513.493L448.967,509.493L449.493,508.861L452.284,505.493L453.493,504.066L455.657,501.493L457.493,499.346L459.062,497.493L461.493,494.651L462.474,493.493L465.493,489.935L465.864,489.493L469.219,485.493L469.493,485.164L472.522,481.493L473.493,480.298L475.747,477.493L477.493,475.263L478.866,473.493L481.493,469.967L481.844,469.493L484.675,465.493L485.493,464.277L487.353,461.493L489.493,458.107L489.879,457.493L492.292,453.493L493.493,451.37L494.552,449.493L496.66,445.493L497.493,443.798L498.626,441.493L500.444,437.493L501.493,434.988L502.123,433.493L503.684,429.493L505.099,425.493L505.493,424.288L506.42,421.493L507.633,417.493L508.735,413.493L509.493,410.484L509.748,409.493L510.705,405.493L511.574,401.493L512.357,397.493L513.059,393.493L513.493,390.743L513.697,389.493L514.288,385.493L514.817,381.493L515.291,377.493L515.721,373.493L516.121,369.493L516.506,365.493L516.879,361.493L517.211,357.493L517.466,353.493L517.493,352.88L517.647,349.493L517.751,345.493L517.783,341.493L517.747,337.493L517.645,333.493L517.493,329.885L517.476,329.493L517.251,325.493L516.958,321.493L516.59,317.493L516.139,313.493L515.59,309.493L514.926,305.493L514.129,301.493L513.493,298.772L513.193,297.493L512.119,293.493L510.864,289.493L509.493,285.726L509.406,285.493L507.757,281.493L505.843,277.493L505.493,276.835L503.659,273.493L501.493,270.05L501.128,269.493L498.206,265.493L497.493,264.621L494.8,261.493L493.493,260.114L490.868,257.493L489.493,256.191L486.492,253.493L485.493,252.61L481.824,249.493L481.493,249.211L477.493,245.868L477.039,245.493L473.493,242.508L472.284,241.493L469.493,239.074L467.69,237.493L465.493,235.471L463.41,233.493L461.493,231.543L459.589,229.493L457.493,227.02L456.295,225.493L453.503,221.493L453.493,221.475L451.285,217.493L449.493,213.609L449.443,213.493L448.096,209.493L447.111,205.493L446.482,201.493L446.186,197.493L446.187,193.493L446.443,189.493L446.917,185.493L447.575,181.493L448.387,177.493L449.324,173.493L449.493,172.853L450.4,169.493L451.561,165.493L452.783,161.493L453.493,159.263L454.067,157.493L455.375,153.493L456.628,149.493L457.493,146.544L457.806,145.493L458.91,141.493L459.919,137.493L460.832,133.493L461.493,130.231L461.645,129.493L462.351,125.493L462.922,121.493L463.346,117.493L463.611,113.493L463.706,109.493L463.622,105.493L463.346,101.493L462.866,97.493L462.167,93.493L461.493,90.578L461.231,89.493L460.03,85.493L458.54,81.493L457.493,79.14L456.707,77.493L454.464,73.493L453.493,71.992L451.719,69.493L449.493,66.755L448.351,65.493L445.493,62.672L444.144,61.493L441.493,59.383L438.77,57.493L437.493,56.671L433.493,54.42L431.585,53.493L429.493,52.53L425.493,50.941L421.493,49.604L421.103,49.493L417.493,48.486L413.493,47.557L409.493,46.802L405.493,46.222L401.493,45.829L397.493,45.636L393.493,45.649L389.493,45.878L385.493,46.329L381.493,46.998L377.493,47.87L373.493,48.919L371.58,49.493L369.493,50.107L365.493,51.42L361.493,52.861L359.86,53.493L357.493,54.395L353.493,56.014L350.055,57.493L349.493,57.732L345.493,59.511L341.493,61.414L341.335,61.493L337.493,63.399L333.571,65.493L333.493,65.534L329.493,67.769L326.622,69.493L325.493,70.17L321.493,72.721L320.357,73.493L317.493,75.446L314.702,77.493L313.493,78.387L309.588,81.493L309.493,81.569L305.493,85.008L304.963,85.493L301.493,88.737L300.728,89.493L297.493,92.774L296.816,93.493L293.493,97.139L293.182,97.493L289.788,101.493L289.493,101.854L286.592,105.493L285.493,106.941L283.579,109.493L281.493,112.431L280.739,113.493L278.038,117.493L277.493,118.34L275.452,121.493L273.493,124.727L273.025,125.493L270.705,129.493L269.493,131.728L268.526,133.493L266.465,137.493L265.493,139.508L264.525,141.493L262.695,145.493L261.493,148.289L260.97,149.493L259.283,153.493L257.61,157.493L257.493,157.756L255.819,161.493L253.937,165.493L253.493,166.377L251.924,169.493L249.831,173.493L249.493,174.105L247.605,177.493L245.493,181.194L245.319,181.493L242.897,185.493L241.493,187.771L240.41,189.493L237.846,193.493L237.493,194.029L235.169,197.493L233.493,199.973L232.448,201.493L229.675,205.493L229.493,205.75L226.803,209.493L225.493,211.308L223.892,213.493L221.493,216.753L220.939,217.493L217.912,221.493L217.493,222.04L214.797,225.493L213.493,227.154L211.62,229.493L209.493,232.13L208.369,233.493L205.493,236.956L205.035,237.493L201.594,241.493L201.493,241.609L198.004,245.493L197.493,246.058L194.279,249.493L193.493,250.331L190.406,253.493L189.493,254.432L186.37,257.493L185.493,258.361L182.133,261.493L181.493,262.093L177.602,265.493L177.493,265.588L173.493,268.782L172.521,269.493L169.493,271.671L166.689,273.493L165.493,274.255L161.493,276.51L159.498,277.493L157.493,278.458L153.493,280.128L149.849,281.493L149.493,281.624L145.493,282.997L141.493,284.344L138.095,285.493L137.493,285.695L133.493,287.049L129.493,288.456L126.666,289.493L125.493,289.926L121.493,291.464L117.493,293.1L116.577,293.493L113.493,294.848L109.493,296.735L107.98,297.493L105.493,298.783L101.493,301.022L100.702,301.493L97.493,303.487L94.511,305.493L93.493,306.213L89.493,309.24L89.177,309.493L85.493,312.626L84.535,313.493L81.493,316.442L80.47,317.493L77.493,320.801L76.902,321.493L73.764,325.493L73.493,325.87L70.994,329.493L69.493,331.919L68.551,333.493L66.396,337.493L65.493,339.379L64.502,341.493L62.857,345.493L61.493,349.418L61.467,349.493L60.311,353.493L59.41,357.493L58.761,361.493L58.359,365.493L58.196,369.493L58.267,373.493L58.575,377.493L59.125,381.493L59.927,385.493L60.982,389.493L61.493,391.087L62.269,393.493L63.767,397.493L65.477,401.493L65.493,401.526L67.41,405.493L69.493,409.275L69.617,409.493L72.161,413.493L73.493,415.349L75.12,417.493L77.493,420.279L78.599,421.493L81.493,424.351L82.749,425.493L85.493,427.766L87.798,429.493L89.493,430.666L93.493,433.14L94.128,433.493L97.493,435.25L101.493,437.058L102.588,437.493L105.493,438.6L109.493,439.901L113.493,440.983L115.781,441.493L117.493,441.869L121.493,442.573L125.493,443.099L129.493,443.454L133.493,443.644L137.493,443.678L141.493,443.567L145.493,443.319L149.493,442.94L153.493,442.433L157.493,441.802L159.155,441.493L161.493,441.069L165.493,440.24L169.493,439.31L173.493,438.289L176.389,437.493L177.493,437.198L181.493,436.07L185.493,434.889L189.493,433.669L190.065,433.493L193.493,432.472L197.493,431.288L201.493,430.13L203.793,429.493L205.493,429.039L209.493,428.044L213.493,427.142L217.493,426.348L221.493,425.682L222.959,425.493L225.493,425.183L229.493,424.861L233.493,424.727L237.493,424.796L241.493,425.075L244.895,425.493L245.493,425.571L249.493,426.329L253.493,427.317L257.493,428.527L260.208,429.493L261.493,429.987L265.493,431.763L268.961,433.493L269.493,433.784L273.493,436.238L275.357,437.493L277.493,439.102L280.419,441.493L281.493,442.494L284.49,445.493L285.493,446.664L287.772,449.493L289.493,452.064L290.402,453.493L292.431,457.493L293.493,460.256L293.949,461.493L295.04,465.493L295.878,469.493L296.551,473.493L297.104,477.493L297.493,480.876L297.561,481.493L297.939,485.493L298.261,489.493L298.534,493.493L298.769,497.493L298.98,501.493L299.187,505.493L299.41,509.493L299.667,513.493L299.975,517.493L300.346,521.493L300.798,525.493L301.342,529.493L301.493,530.425L301.987,533.493L302.743,537.493L303.625,541.493L304.645,545.493L305.493,548.393L305.823,549.493L307.175,553.493L308.707,557.493L309.493,559.338L310.471,561.493L312.49,565.493L313.493,567.29L314.851,569.493L317.493,573.355L317.599,573.493L320.968,577.493L321.493,578.065L325.109,581.493L325.493,581.83L329.493,584.861L330.478,585.493L333.493,587.313L337.493,589.306L337.947,589.493L341.493,590.881L345.493,592.117L349.493,593.051L352.185,593.493L353.493,593.701L357.493,594.082L361.493,594.21L365.493,594.086L369.493,593.705Z"></path><path d="M370.561,569.493L373.493,568.828L377.493,567.491L381.493,565.693L381.845,565.493L385.493,563.331L388.026,561.493L389.493,560.383L392.708,557.493L393.493,556.759L396.505,553.493L397.493,552.384L399.765,549.493L401.493,547.227L402.691,545.493L405.395,541.493L405.493,541.346L407.899,537.493L409.493,534.945L410.373,533.493L412.833,529.493L413.493,528.447L415.359,525.493L417.493,522.25L418,521.493L420.8,517.493L421.493,516.553L423.786,513.493L425.493,511.33L426.958,509.493L429.493,506.464L430.308,505.493L433.493,501.866L433.82,501.493L437.466,497.493L437.493,497.464L441.204,493.493L441.493,493.193L444.987,489.493L445.493,488.971L448.771,485.493L449.493,484.739L452.512,481.493L453.493,480.446L456.172,477.493L457.493,476.032L459.714,473.493L461.493,471.421L463.099,469.493L465.493,466.52L466.299,465.493L469.323,461.493L469.493,461.262L472.206,457.493L473.493,455.632L474.945,453.493L477.493,449.537L477.521,449.493L479.955,445.493L481.493,442.78L482.215,441.493L484.326,437.493L485.493,435.11L486.28,433.493L488.091,429.493L489.493,426.105L489.746,425.493L491.285,421.493L492.683,417.493L493.493,414.965L493.968,413.493L495.159,409.493L496.246,405.493L497.234,401.493L497.493,400.346L498.147,397.493L498.971,393.493L499.706,389.493L500.358,385.493L500.935,381.493L501.444,377.493L501.493,377.07L501.912,373.493L502.337,369.493L502.735,365.493L503.107,361.493L503.421,357.493L503.636,353.493L503.746,349.493L503.758,345.493L503.681,341.493L503.517,337.493L503.266,333.493L502.927,329.493L502.497,325.493L501.972,321.493L501.493,318.44L501.345,317.493L500.615,313.493L499.75,309.493L498.724,305.493L497.515,301.493L497.493,301.427L496.131,297.493L494.525,293.493L493.493,291.221L492.686,289.493L490.589,285.493L489.493,283.624L488.196,281.493L485.493,277.535L485.463,277.493L482.365,273.493L481.493,272.471L478.85,269.493L477.493,268.089L474.885,265.493L473.493,264.208L470.445,261.493L469.493,260.689L465.596,257.493L465.493,257.409L461.493,254.184L460.645,253.493L457.493,250.854L455.926,249.493L453.493,247.288L451.609,245.493L449.493,243.37L447.722,241.493L445.493,238.979L444.245,237.493L441.493,233.95L441.156,233.493L438.487,229.493L437.493,227.82L436.183,225.493L434.223,221.493L433.493,219.728L432.614,217.493L431.338,213.493L430.365,209.493L429.697,205.493L429.493,203.283L429.334,201.493L429.246,197.493L429.402,193.493L429.493,192.522L429.781,189.493L430.355,185.493L431.096,181.493L431.979,177.493L432.982,173.493L433.493,171.64L434.094,169.493L435.292,165.493L436.548,161.493L437.493,158.583L437.851,157.493L439.164,153.493L440.421,149.493L441.493,145.818L441.589,145.493L442.661,141.493L443.625,137.493L444.475,133.493L445.198,129.493L445.493,127.433L445.774,125.493L446.178,121.493L446.393,117.493L446.397,113.493L446.168,109.493L445.682,105.493L445.493,104.477L444.904,101.493L443.801,97.493L442.342,93.493L441.493,91.613L440.452,89.493L438.065,85.493L437.493,84.673L435.029,81.493L433.493,79.782L431.176,77.493L429.493,76.02L426.183,73.493L425.493,73.015L421.493,70.589L419.379,69.493L417.493,68.585L413.493,66.931L409.493,65.557L409.268,65.493L405.493,64.464L401.493,63.631L397.493,63.064L393.493,62.765L389.493,62.741L385.493,62.994L381.493,63.516L377.493,64.285L373.493,65.264L372.71,65.493L369.493,66.42L365.493,67.737L361.493,69.201L360.758,69.493L357.493,70.778L353.493,72.466L351.199,73.493L349.493,74.253L345.493,76.138L342.796,77.493L341.493,78.147L337.493,80.282L335.365,81.493L333.493,82.563L329.493,85L328.73,85.493L325.493,87.602L322.781,89.493L321.493,90.401L317.493,93.415L317.396,93.493L313.493,96.673L312.553,97.493L309.493,100.225L308.164,101.493L305.493,104.115L304.172,105.493L301.493,108.384L300.519,109.493L297.493,113.078L297.158,113.493L294.054,117.493L293.493,118.247L291.167,121.493L289.493,123.955L288.475,125.493L285.97,129.493L285.493,130.296L283.614,133.493L281.493,137.361L281.42,137.493L279.331,141.493L277.493,145.283L277.39,145.493L275.517,149.493L273.735,153.493L273.493,154.032L271.914,157.493L270.02,161.493L269.493,162.531L267.973,165.493L265.808,169.493L265.493,170.038L263.496,173.493L261.493,176.816L261.087,177.493L258.577,181.493L257.493,183.163L256.001,185.493L253.493,189.329L253.387,189.493L250.709,193.493L249.493,195.278L247.985,197.493L245.493,201.112L245.228,201.493L242.389,205.493L241.493,206.74L239.495,209.493L237.493,212.233L236.562,213.493L233.586,217.493L233.493,217.616L230.527,221.493L229.493,222.838L227.43,225.493L225.493,227.976L224.294,229.493L221.493,233.026L221.117,233.493L217.871,237.493L217.493,237.956L214.553,241.493L213.493,242.765L211.175,245.493L209.493,247.471L207.735,249.493L205.493,252.082L204.238,253.493L201.493,256.621L200.703,257.493L197.493,261.117L197.146,261.493L193.549,265.493L193.493,265.556L189.832,269.493L189.493,269.863L185.942,273.493L185.493,273.955L181.781,277.493L181.493,277.768L177.493,281.259L177.198,281.493L173.493,284.417L171.978,285.493L169.493,287.254L165.942,289.493L165.493,289.776L161.493,291.996L158.401,293.493L157.493,293.933L153.493,295.629L149.493,297.173L148.625,297.493L145.493,298.657L141.493,300.142L137.934,301.493L137.493,301.662L133.493,303.249L129.493,304.93L128.224,305.493L125.493,306.731L121.493,308.67L119.9,309.493L117.493,310.776L113.493,313.075L112.811,313.493L109.493,315.614L106.773,317.493L105.493,318.426L101.586,321.493L101.493,321.571L97.493,325.143L97.125,325.493L93.493,329.239L93.26,329.493L89.902,333.493L89.493,334.032L86.981,337.493L85.493,339.806L84.446,341.493L82.271,345.493L81.493,347.171L80.443,349.493L78.952,353.493L77.792,357.493L77.493,358.916L76.957,361.493L76.438,365.493L76.227,369.493L76.321,373.493L76.722,377.493L77.44,381.493L77.493,381.695L78.493,385.493L79.88,389.493L81.493,393.273L81.59,393.493L83.63,397.493L85.493,400.666L86.003,401.493L88.79,405.493L89.493,406.39L92.105,409.493L93.493,410.959L96.116,413.493L97.493,414.686L101.103,417.493L101.493,417.767L105.493,420.293L107.69,421.493L109.493,422.402L113.493,424.135L117.272,425.493L117.493,425.567L121.493,426.7L125.493,427.586L129.493,428.241L133.493,428.677L137.493,428.91L141.493,428.958L145.493,428.837L149.493,428.557L153.493,428.128L157.493,427.563L161.493,426.874L165.493,426.074L168.073,425.493L169.493,425.174L173.493,424.194L177.493,423.15L181.493,422.055L183.48,421.493L185.493,420.927L189.493,419.787L193.493,418.655L197.493,417.549L197.706,417.493L201.493,416.502L205.493,415.526L209.493,414.642L213.493,413.867L215.782,413.493L217.493,413.222L221.493,412.724L225.493,412.382L229.493,412.211L233.493,412.223L237.493,412.426L241.493,412.82L245.493,413.398L245.982,413.493L249.493,414.191L253.493,415.173L257.493,416.324L261.084,417.493L261.493,417.632L265.493,419.169L269.493,420.851L270.888,421.493L273.493,422.772L277.493,424.893L278.547,425.493L281.493,427.304L284.856,429.493L285.493,429.946L289.493,432.942L290.197,433.493L293.493,436.342L294.778,437.493L297.493,440.221L298.725,441.493L301.493,444.754L302.108,445.493L304.969,449.493L305.493,450.371L307.342,453.493L309.261,457.493L309.493,458.123L310.741,461.493L311.865,465.493L312.746,469.493L313.466,473.493L313.493,473.674L314.073,477.493L314.585,481.493L315.022,485.493L315.399,489.493L315.722,493.493L316.003,497.493L316.259,501.493L316.517,505.493L316.804,509.493L317.143,513.493L317.493,516.863L317.562,517.493L318.108,521.493L318.781,525.493L319.605,529.493L320.597,533.493L321.493,536.54L321.801,537.493L323.31,541.493L325.074,545.493L325.493,546.326L327.285,549.493L329.493,552.908L329.926,553.493L333.246,557.493L333.493,557.761L337.493,561.467L337.526,561.493L341.493,564.294L343.61,565.493L345.493,566.479L349.493,568.104L353.493,569.269L354.704,569.493L357.493,569.979L361.493,570.284L365.493,570.2L369.493,569.726Z"></path><path d="M373.883,537.493L377.493,536.01L381.493,533.707L381.778,533.493L385.493,530.665L386.755,529.493L389.493,526.951L390.828,525.493L393.493,522.635L394.425,521.493L397.493,517.871L397.781,517.493L400.98,513.493L401.493,512.889L404.162,509.493L405.493,507.917L407.44,505.493L409.493,503.128L410.88,501.493L413.493,498.647L414.548,497.493L417.493,494.5L418.482,493.493L421.493,490.62L422.662,489.493L425.493,486.909L427.012,485.493L429.493,483.284L431.444,481.493L433.493,479.679L435.87,477.493L437.493,476.038L440.207,473.493L441.493,472.299L444.368,469.493L445.493,468.39L448.296,465.493L449.493,464.24L451.984,461.493L453.493,459.802L455.453,457.493L457.493,455.032L458.712,453.493L461.493,449.851L461.756,449.493L464.581,445.493L465.493,444.132L467.208,441.493L469.493,437.746L469.643,437.493L471.905,433.493L473.493,430.453L473.987,429.493L475.907,425.493L477.493,421.878L477.66,421.493L479.281,417.493L480.755,413.493L481.493,411.316L482.11,409.493L483.361,405.493L484.498,401.493L485.493,397.618L485.525,397.493L486.464,393.493L487.298,389.493L488.034,385.493L488.68,381.493L489.244,377.493L489.493,375.479L489.742,373.493L490.188,369.493L490.592,365.493L490.957,361.493L491.246,357.493L491.415,353.493L491.457,349.493L491.38,345.493L491.192,341.493L490.895,337.493L490.487,333.493L489.965,329.493L489.493,326.517L489.33,325.493L488.581,321.493L487.696,317.493L486.656,313.493L485.493,309.67L485.438,309.493L484.033,305.493L482.392,301.493L481.493,299.564L480.502,297.493L478.343,293.493L477.493,292.073L475.898,289.493L473.493,285.998L473.132,285.493L470.031,281.493L469.493,280.852L466.567,277.493L465.493,276.347L462.742,273.493L461.493,272.277L458.621,269.493L457.493,268.457L454.319,265.493L453.493,264.756L449.934,261.493L449.493,261.099L445.575,257.493L445.493,257.416L441.493,253.57L441.414,253.493L437.55,249.493L437.493,249.43L434.017,245.493L433.493,244.862L430.793,241.493L429.493,239.752L427.864,237.493L425.493,233.918L425.22,233.493L422.917,229.493L421.493,226.703L420.895,225.493L419.188,221.493L417.741,217.493L417.493,216.644L416.597,213.493L415.724,209.493L415.116,205.493L414.766,201.493L414.663,197.493L414.786,193.493L415.11,189.493L415.614,185.493L416.278,181.493L417.084,177.493L417.493,175.723L418.017,173.493L419.053,169.493L420.166,165.493L421.341,161.493L421.493,160.988L422.558,157.493L423.77,153.493L424.916,149.493L425.493,147.269L425.957,145.493L426.869,141.493L427.647,137.493L428.278,133.493L428.74,129.493L429.001,125.493L429.025,121.493L428.779,117.493L428.221,113.493L427.307,109.493L425.983,105.493L425.493,104.356L424.137,101.493L421.703,97.493L421.493,97.205L418.454,93.493L417.493,92.5L414.173,89.493L413.493,88.954L409.493,86.192L408.3,85.493L405.493,84.008L401.493,82.291L399.084,81.493L397.493,81.005L393.493,80.128L389.493,79.628L385.493,79.497L381.493,79.72L377.493,80.256L373.493,81.058L371.819,81.493L369.493,82.094L365.493,83.334L361.493,84.749L359.595,85.493L357.493,86.317L353.493,88.019L350.262,89.493L349.493,89.845L345.493,91.804L342.283,93.493L341.493,93.912L337.493,96.187L335.35,97.493L333.493,98.64L329.493,101.285L329.197,101.493L325.493,104.151L323.743,105.493L321.493,107.26L318.83,109.493L317.493,110.646L314.4,113.493L313.493,114.354L310.395,117.493L309.493,118.438L306.758,121.493L305.493,122.964L303.444,125.493L301.493,128.017L300.412,129.493L297.632,133.493L297.493,133.702L295.099,137.493L293.493,140.193L292.75,141.493L290.591,145.493L289.493,147.643L288.574,149.493L286.665,153.493L285.493,155.959L284.773,157.493L282.814,161.493L281.493,164.024L280.727,165.493L278.503,169.493L277.493,171.199L276.129,173.493L273.617,177.493L273.493,177.68L270.954,181.493L269.493,183.594L268.18,185.493L265.493,189.241L265.315,189.493L262.376,193.493L261.493,194.658L259.4,197.493L257.493,200.021L256.413,201.493L253.493,205.412L253.434,205.493L250.441,209.493L249.493,210.745L247.427,213.493L245.493,216.042L244.39,217.493L241.493,221.277L241.326,221.493L238.202,225.493L237.493,226.395L235.04,229.493L233.493,231.44L231.848,233.493L229.493,236.425L228.627,237.493L225.493,241.352L225.377,241.493L222.067,245.493L221.493,246.187L218.72,249.493L217.493,250.969L215.357,253.493L213.493,255.742L212.009,257.493L209.493,260.57L208.717,261.493L205.493,265.492L205.492,265.493L202.252,269.493L201.493,270.463L198.999,273.493L197.493,275.372L195.688,277.493L193.493,280.126L192.272,281.493L189.493,284.651L188.691,285.493L185.493,288.893L184.875,289.493L181.493,292.813L180.726,293.493L177.493,296.384L176.106,297.493L173.493,299.598L170.844,301.493L169.493,302.465L165.493,305.006L164.621,305.493L161.493,307.254L157.493,309.22L156.867,309.493L153.493,310.983L149.493,312.621L147.323,313.493L145.493,314.245L141.493,315.919L137.885,317.493L137.493,317.67L133.493,319.572L129.733,321.493L129.493,321.622L125.493,323.917L122.948,325.493L121.493,326.454L117.493,329.297L117.234,329.493L113.493,332.571L112.447,333.493L109.493,336.356L108.392,337.493L105.493,340.84L104.959,341.493L102.083,345.493L101.493,346.455L99.715,349.493L97.8,353.493L97.493,354.316L96.347,357.493L95.318,361.493L94.697,365.493L94.481,369.493L94.67,373.493L95.275,377.493L96.314,381.493L97.493,384.668L97.817,385.493L99.845,389.493L101.493,392.152L102.391,393.493L105.493,397.447L105.531,397.493L109.474,401.493L109.493,401.509L113.493,404.711L114.62,405.493L117.493,407.279L121.493,409.364L121.788,409.493L125.493,410.957L129.493,412.195L133.493,413.108L135.961,413.493L137.493,413.714L141.493,414.049L145.493,414.157L149.493,414.057L153.493,413.768L155.905,413.493L157.493,413.306L161.493,412.691L165.493,411.955L169.493,411.119L173.493,410.208L176.446,409.493L177.493,409.235L181.493,408.209L185.493,407.176L189.493,406.155L192.156,405.493L193.493,405.16L197.493,404.211L201.493,403.346L205.493,402.577L209.493,401.923L212.753,401.493L213.493,401.397L217.493,401.014L221.493,400.782L225.493,400.708L229.493,400.8L233.493,401.064L237.402,401.493L237.493,401.502L241.493,402.124L245.493,402.909L249.493,403.847L253.493,404.925L255.356,405.493L257.493,406.157L261.493,407.523L265.493,408.979L266.805,409.493L269.493,410.585L273.493,412.319L276.048,413.493L277.493,414.192L281.493,416.239L283.835,417.493L285.493,418.439L289.493,420.818L290.586,421.493L293.493,423.424L296.517,425.493L297.493,426.217L301.493,429.262L301.789,429.493L305.493,432.636L306.49,433.493L309.493,436.337L310.708,437.493L313.493,440.446L314.483,441.493L317.493,445.082L317.841,445.493L320.799,449.493L321.493,450.588L323.375,453.493L325.493,457.366L325.564,457.493L327.393,461.493L328.894,465.493L329.493,467.394L330.19,469.493L331.356,473.493L332.407,477.493L333.363,481.493L333.493,482.093L334.285,485.493L335.158,489.493L335.981,493.493L336.763,497.493L337.493,501.307L337.532,501.493L338.388,505.493L339.324,509.493L340.386,513.493L341.493,517.089L341.637,517.493L343.289,521.493L345.276,525.493L345.493,525.867L348.056,529.493L349.493,531.219L351.944,533.493L353.493,534.738L357.493,537.016L358.865,537.493L361.493,538.306L365.493,538.791L369.493,538.559L373.493,537.648Z"></path><path d="M391.539,489.493L393.493,488.584L397.493,486.298L398.7,485.493L401.493,483.798L404.907,481.493L405.493,481.131L409.493,478.417L410.777,477.493L413.493,475.67L416.58,473.493L417.493,472.882L421.493,470.049L422.234,469.493L425.493,467.117L427.581,465.493L429.493,464.035L432.598,461.493L433.493,460.771L437.266,457.493L437.493,457.296L441.493,453.566L441.566,453.493L445.493,449.496L445.495,449.493L449.065,445.493L449.493,444.995L452.317,441.493L453.493,439.962L455.289,437.493L457.493,434.279L458.008,433.493L460.48,429.493L461.493,427.732L462.735,425.493L464.789,421.493L465.493,420.011L466.661,417.493L468.365,413.493L469.493,410.607L469.922,409.493L471.349,405.493L472.646,401.493L473.493,398.612L473.82,397.493L474.879,393.493L475.816,389.493L476.641,385.493L477.359,381.493L477.493,380.636L477.988,377.493L478.53,373.493L478.996,369.493L479.406,365.493L479.761,361.493L480.023,357.493L480.143,353.493L480.114,349.493L479.944,345.493L479.641,341.493L479.205,337.493L478.633,333.493L477.92,329.493L477.493,327.479L477.068,325.493L476.068,321.493L474.898,317.493L473.536,313.493L473.493,313.379L471.974,309.493L470.163,305.493L469.493,304.18L468.084,301.493L465.706,297.493L465.493,297.165L463.043,293.493L461.493,291.384L460.091,289.493L457.493,286.266L456.875,285.493L453.493,281.547L453.447,281.493L449.874,277.493L449.493,277.088L446.166,273.493L445.493,272.798L442.357,269.493L441.493,268.618L438.478,265.493L437.493,264.505L434.557,261.493L433.493,260.419L430.657,257.493L429.493,256.271L426.904,253.493L425.493,251.909L423.389,249.493L421.493,247.184L420.135,245.493L417.493,241.981L417.133,241.493L414.416,237.493L413.493,236.009L411.962,233.493L409.76,229.493L409.493,228.943L407.853,225.493L406.189,221.493L405.493,219.532L404.781,217.493L403.626,213.493L402.707,209.493L402.025,205.493L401.576,201.493L401.493,200.01L401.352,197.493L401.331,193.493L401.493,189.513L401.493,189.493L401.825,185.493L402.31,181.493L402.929,177.493L403.664,173.493L404.496,169.493L405.406,165.493L405.493,165.13L406.371,161.493L407.366,157.493L408.344,153.493L409.235,149.493L409.493,148.108L409.985,145.493L410.566,141.493L410.961,137.493L411.145,133.493L411.078,129.493L410.706,125.493L409.972,121.493L409.493,119.787L408.784,117.493L407.046,113.493L405.493,110.821L404.612,109.493L401.493,105.792L401.192,105.493L397.493,102.439L396.032,101.493L393.493,100.077L389.493,98.469L385.515,97.493L385.493,97.488L381.493,97.092L377.493,97.153L374.437,97.493L373.493,97.598L369.493,98.379L365.493,99.432L361.493,100.713L359.39,101.493L357.493,102.205L353.493,103.882L349.972,105.493L349.493,105.715L345.493,107.754L342.354,109.493L341.493,109.98L337.493,112.441L335.908,113.493L333.493,115.136L330.271,117.493L329.493,118.078L325.493,121.305L325.276,121.493L321.493,124.871L320.841,125.493L317.493,128.823L316.862,129.493L313.493,133.24L313.28,133.493L310.068,137.493L309.493,138.247L307.17,141.493L305.493,143.97L304.522,145.493L302.101,149.493L301.493,150.537L299.864,153.493L297.67,157.493L297.493,157.802L295.482,161.493L293.493,164.904L293.164,165.493L290.771,169.493L289.493,171.482L288.248,173.493L285.601,177.493L285.493,177.646L282.847,181.493L281.493,183.352L279.958,185.493L277.493,188.76L276.946,189.493L273.817,193.493L273.493,193.888L270.588,197.493L269.493,198.802L267.296,201.493L265.493,203.635L263.977,205.493L261.493,208.466L260.666,209.493L257.493,213.364L257.391,213.493L254.166,217.493L253.493,218.317L250.966,221.493L249.493,223.331L247.776,225.493L245.493,228.35L244.58,229.493L241.493,233.341L241.371,233.493L238.118,237.493L237.493,238.26L234.843,241.493L233.493,243.14L231.551,245.493L229.493,247.993L228.247,249.493L225.493,252.842L224.951,253.493L221.695,257.493L221.493,257.751L218.506,261.493L217.493,262.838L215.438,265.493L213.493,268.153L212.478,269.493L209.59,273.493L209.493,273.634L206.689,277.493L205.493,279.208L203.805,281.493L201.493,284.73L200.91,285.493L197.944,289.493L197.493,290.12L194.866,293.493L193.493,295.299L191.673,297.493L189.493,300.173L188.31,301.493L185.493,304.685L184.699,305.493L181.493,308.798L180.734,309.493L177.493,312.501L176.278,313.493L173.493,315.809L171.173,317.493L169.493,318.747L165.493,321.341L165.226,321.493L161.493,323.708L158.027,325.493L157.493,325.783L153.493,327.743L149.694,329.493L149.493,329.592L145.493,331.589L141.807,333.493L141.493,333.67L137.493,336.059L135.25,337.493L133.493,338.741L129.903,341.493L129.493,341.85L125.622,345.493L125.493,345.636L122.245,349.493L121.493,350.586L119.623,353.493L117.645,357.493L117.493,357.941L116.354,361.493L115.659,365.493L115.561,369.493L116.086,373.493L117.268,377.493L117.493,377.978L119.307,381.493L121.493,384.536L122.284,385.493L125.493,388.555L126.669,389.493L129.493,391.382L133.477,393.493L133.493,393.5L137.493,394.933L141.493,395.946L145.493,396.585L149.493,396.89L153.493,396.904L157.493,396.68L161.493,396.276L165.493,395.734L169.493,395.086L173.493,394.373L177.493,393.626L178.184,393.493L181.493,392.839L185.493,392.07L189.493,391.348L193.493,390.693L197.493,390.124L201.493,389.656L203.289,389.493L205.493,389.295L209.493,389.06L213.493,388.964L217.493,389.008L221.493,389.193L225.147,389.493L225.493,389.52L229.493,389.994L233.493,390.618L237.493,391.391L241.493,392.299L245.493,393.328L246.052,393.493L249.493,394.496L253.493,395.774L257.493,397.137L258.472,397.493L261.493,398.601L265.493,400.124L268.97,401.493L269.493,401.703L273.493,403.406L277.493,405.164L278.21,405.493L281.493,407.06L285.493,409.028L286.407,409.493L289.493,411.145L293.493,413.341L293.762,413.493L297.493,415.731L300.373,417.493L301.493,418.226L305.493,420.892L306.382,421.493L309.493,423.756L311.865,425.493L313.493,426.784L316.906,429.493L317.493,429.999L321.493,433.438L321.556,433.493L325.493,437.161L325.855,437.493L329.493,441.158L329.834,441.493L333.493,445.472L333.512,445.493L336.923,449.493L337.493,450.248L340.078,453.493L341.493,455.513L342.979,457.493L345.493,461.32L345.616,461.493L348.12,465.493L349.493,467.868L350.547,469.493L353.021,473.493L353.493,474.293L355.688,477.493L357.493,480.157L358.59,481.493L361.493,485.029L361.984,485.493L365.493,488.784L366.58,489.493L369.493,491.377L373.493,492.852L377.493,493.364L381.493,493.068L385.493,492.094L389.493,490.55Z"></path><path d="M403.733,461.493L405.493,460.838L409.493,459.063L412.588,457.493L413.493,457.056L417.493,454.872L419.755,453.493L421.493,452.456L425.493,449.787L425.892,449.493L429.493,446.83L431.129,445.493L433.493,443.525L435.713,441.493L437.493,439.816L439.749,437.493L441.493,435.621L443.322,433.493L445.493,430.826L446.503,429.493L449.343,425.493L449.493,425.267L451.864,421.493L453.493,418.671L454.141,417.493L456.18,413.493L457.493,410.679L458.027,409.493L459.695,405.493L461.207,401.493L461.493,400.666L462.566,397.493L463.776,393.493L464.845,389.493L465.493,386.735L465.782,385.493L466.596,381.493L467.293,377.493L467.882,373.493L468.376,369.493L468.796,365.493L469.143,361.493L469.377,357.493L469.447,353.493L469.344,349.493L469.077,345.493L468.654,341.493L468.074,337.493L467.333,333.493L466.424,329.493L465.493,326.042L465.343,325.493L464.092,321.493L462.642,317.493L461.493,314.719L460.983,313.493L459.112,309.493L457.493,306.447L456.989,305.493L454.643,301.493L453.493,299.723L452.06,297.493L449.493,293.846L449.247,293.493L446.268,289.493L445.493,288.518L443.12,285.493L441.493,283.537L439.819,281.493L437.493,278.793L436.392,277.493L433.493,274.218L432.861,273.493L429.493,269.764L429.251,269.493L425.584,265.493L425.493,265.395L421.884,261.493L421.493,261.074L418.197,257.493L417.493,256.712L414.636,253.493L413.493,252.143L411.285,249.493L409.493,247.209L408.166,245.493L405.493,241.801L405.272,241.493L402.638,237.493L401.493,235.602L400.233,233.493L398.065,229.493L397.493,228.308L396.149,225.493L394.456,221.493L393.493,218.883L392.98,217.493L391.724,213.493L390.673,209.493L389.828,205.493L389.493,203.382L389.184,201.493L388.729,197.493L388.454,193.493L388.343,189.493L388.384,185.493L388.567,181.493L388.878,177.493L389.303,173.493L389.493,172.003L389.808,169.493L390.37,165.493L390.975,161.493L391.596,157.493L392.17,153.493L392.604,149.493L392.822,145.493L392.765,141.493L392.371,137.493L391.565,133.493L390.235,129.493L389.493,127.937L388.009,125.493L385.493,122.507L384.259,121.493L381.493,119.701L377.493,118.211L373.493,117.601L369.493,117.649L365.493,118.202L361.493,119.146L357.493,120.392L354.568,121.493L353.493,121.908L349.493,123.716L346.007,125.493L345.493,125.764L341.493,128.168L339.508,129.493L337.493,130.892L334.082,133.493L333.493,133.962L329.493,137.441L329.438,137.493L325.493,141.403L325.409,141.493L321.863,145.493L321.493,145.932L318.708,149.493L317.493,151.108L315.824,153.493L313.493,156.834L313.064,157.493L310.348,161.493L309.493,162.66L307.554,165.493L305.493,168.268L304.64,169.493L301.618,173.493L301.493,173.645L298.541,177.493L297.493,178.755L295.358,181.493L293.493,183.716L292.088,185.493L289.493,188.561L288.744,189.493L285.493,193.3L285.335,193.493L281.868,197.493L281.493,197.903L278.323,201.493L277.493,202.39L274.708,205.493L273.493,206.793L271.048,209.493L269.493,211.154L267.383,213.493L265.493,215.534L263.757,217.493L261.493,219.997L260.205,221.493L257.493,224.6L256.747,225.493L253.493,229.35L253.376,229.493L250.052,233.493L249.493,234.162L246.74,237.493L245.493,238.998L243.43,241.493L241.493,243.836L240.12,245.493L237.493,248.675L236.814,249.493L233.531,253.493L233.493,253.54L230.282,257.493L229.493,258.513L227.157,261.493L225.493,263.762L224.197,265.493L221.493,269.359L221.396,269.493L218.671,273.493L217.493,275.334L216.05,277.493L213.521,281.493L213.493,281.541L210.986,285.493L209.493,287.965L208.509,289.493L206.045,293.493L205.493,294.432L203.549,297.493L201.493,300.848L201.063,301.493L198.493,305.493L197.493,307.104L195.856,309.493L193.493,313.036L193.153,313.493L190.3,317.493L189.493,318.677L187.316,321.493L185.493,323.972L184.207,325.493L181.493,328.91L180.953,329.493L177.524,333.493L177.493,333.534L173.871,337.493L173.493,337.959L170.035,341.493L169.493,342.138L166.065,345.493L165.493,346.177L162.131,349.493L161.493,350.322L158.574,353.493L157.493,355.254L155.939,357.493L154.805,361.493L156.04,365.493L157.493,366.766L161.493,369.16L162.287,369.493L165.493,370.293L169.493,371.001L173.493,371.518L177.493,371.928L181.493,372.289L185.493,372.633L189.493,372.984L193.493,373.356L194.736,373.493L197.493,373.747L201.493,374.187L205.493,374.695L209.493,375.278L213.493,375.944L217.493,376.692L221.342,377.493L221.493,377.521L225.493,378.424L229.493,379.421L233.493,380.514L236.765,381.493L237.493,381.701L241.493,382.984L245.493,384.344L248.685,385.493L249.493,385.777L253.493,387.296L257.493,388.857L259.076,389.493L261.493,390.46L265.493,392.084L268.942,393.493L269.493,393.721L273.493,395.43L277.493,397.161L278.241,397.493L281.493,398.981L285.493,400.841L286.868,401.493L289.493,402.791L293.493,404.802L294.84,405.493L297.493,406.922L301.493,409.108L302.187,409.493L305.493,411.435L308.962,413.493L309.493,413.828L313.493,416.375L315.243,417.493L317.493,419.031L321.1,421.493L321.493,421.78L325.493,424.696L326.599,425.493L329.493,427.736L331.807,429.493L333.493,430.876L336.778,433.493L337.493,434.11L341.493,437.438L341.561,437.493L345.493,440.894L346.228,441.493L349.493,444.395L350.825,445.493L353.493,447.894L355.447,449.493L357.493,451.32L360.24,453.493L361.493,454.575L365.45,457.493L365.493,457.526L369.493,460.185L372.049,461.493L373.493,462.283L377.493,463.852L381.493,464.807L385.493,465.21L389.493,465.12L393.493,464.59L397.493,463.666L401.493,462.389Z"></path><path d="M401.65,445.493L405.493,444.374L409.493,442.887L412.582,441.493L413.493,441.085L417.493,438.973L419.906,437.493L421.493,436.506L425.493,433.647L425.685,433.493L429.493,430.325L430.388,429.493L433.493,426.458L434.388,425.493L437.493,421.929L437.841,421.493L440.832,417.493L441.493,416.539L443.454,413.493L445.493,410.029L445.79,409.493L447.847,405.493L449.493,401.954L449.697,401.493L451.325,397.493L452.768,393.493L453.493,391.225L454.031,389.493L455.125,385.493L456.066,381.493L456.862,377.493L457.493,373.686L457.524,373.493L458.071,369.493L458.521,365.493L458.875,361.493L459.092,357.493L459.12,353.493L458.95,349.493L458.593,345.493L458.059,341.493L457.493,338.307L457.349,337.493L456.477,333.493L455.424,329.493L454.185,325.493L453.493,323.542L452.773,321.493L451.184,317.493L449.493,313.744L449.38,313.493L447.406,309.493L445.493,306.038L445.194,305.493L442.795,301.493L441.493,299.509L440.186,297.493L437.493,293.653L437.382,293.493L434.447,289.493L433.493,288.266L431.365,285.493L429.493,283.176L428.151,281.493L425.493,278.306L424.824,277.493L421.493,273.601L421.401,273.493L417.92,269.493L417.493,269.014L414.384,265.493L413.493,264.507L410.803,261.493L409.493,260.038L407.227,257.493L405.493,255.503L403.759,253.493L401.493,250.738L400.478,249.493L397.493,245.608L397.405,245.493L394.567,241.493L393.493,239.868L391.931,237.493L389.494,233.493L389.493,233.49L387.276,229.493L385.493,225.976L385.242,225.493L383.382,221.493L381.686,217.493L381.493,216.975L380.118,213.493L378.705,209.493L377.493,205.606L377.454,205.493L376.298,201.493L375.288,197.493L374.414,193.493L373.661,189.493L373.493,188.406L372.963,185.493L372.341,181.493L371.793,177.493L371.292,173.493L370.808,169.493L370.292,165.493L369.676,161.493L369.493,160.518L368.671,157.493L366.964,153.493L365.493,151.394L362.88,149.493L361.493,148.816L357.493,148.225L353.493,148.633L350.531,149.493L349.493,149.804L345.493,151.746L342.743,153.493L341.493,154.283L337.493,157.391L337.382,157.493L333.493,160.857L332.848,161.493L329.493,164.493L328.496,165.493L325.493,168.209L324.211,169.493L321.493,171.944L319.931,173.493L317.493,175.673L315.634,177.493L313.493,179.393L311.326,181.493L309.493,183.112L307.019,185.493L305.493,186.84L302.729,189.493L301.493,190.587L298.469,193.493L297.493,194.364L294.253,197.493L293.493,198.178L290.089,201.493L289.493,202.039L285.976,205.493L285.493,205.941L281.892,209.493L281.493,209.867L277.82,213.493L277.493,213.802L273.765,217.493L273.493,217.753L269.76,221.493L269.493,221.753L265.845,225.493L265.493,225.846L262.053,229.493L261.493,230.078L258.402,233.493L257.493,234.487L254.875,237.493L253.493,239.071L251.434,241.493L249.493,243.772L248.045,245.493L245.493,248.534L244.69,249.493L241.493,253.356L241.379,253.493L238.13,257.493L237.493,258.319L235.024,261.493L233.493,263.612L232.112,265.493L229.493,269.353L229.396,269.493L226.797,273.493L225.493,275.66L224.349,277.493L222.02,281.493L221.493,282.463L219.763,285.493L217.624,289.493L217.493,289.756L215.509,293.493L213.509,297.493L213.493,297.529L211.51,301.493L209.615,305.493L209.493,305.774L207.715,309.493L205.914,313.493L205.493,314.523L204.142,317.493L202.487,321.493L201.493,324.232L200.974,325.493L199.625,329.493L198.573,333.493L197.905,337.493L197.741,341.493L198.269,345.493L199.788,349.493L201.493,351.912L202.673,353.493L205.493,356.014L207.262,357.493L209.493,358.913L213.493,361.302L213.813,361.493L217.493,363.341L221.493,365.253L221.979,365.493L225.493,367.037L229.493,368.781L231.07,369.493L233.493,370.504L237.493,372.229L240.361,373.493L241.493,373.965L245.493,375.718L249.493,377.48L249.521,377.493L253.493,379.277L257.493,381.066L258.438,381.493L261.493,382.853L265.493,384.604L267.539,385.493L269.493,386.344L273.493,388.092L276.708,389.493L277.493,389.84L281.493,391.635L285.493,393.427L285.638,393.493L289.493,395.296L293.493,397.175L294.161,397.493L297.493,399.142L301.493,401.136L302.201,401.493L305.493,403.23L309.493,405.354L309.752,405.493L313.493,407.6L316.85,409.493L317.493,409.877L321.493,412.266L323.56,413.493L325.493,414.716L329.493,417.217L329.941,417.493L333.493,419.822L336.105,421.493L337.493,422.444L341.493,425.098L342.112,425.493L345.493,427.803L348.094,429.493L349.493,430.468L353.493,433.083L354.169,433.493L357.493,435.651L360.61,437.493L361.493,438.053L365.493,440.303L367.952,441.493L369.493,442.29L373.493,443.993L377.493,445.315L378.244,445.493L381.493,446.302L385.493,446.895L389.493,447.1L393.493,446.932L397.493,446.408L401.493,445.54Z"></path><path d="M405.99,429.493L409.493,428.091L413.493,426.098L414.514,425.493L417.493,423.665L420.498,421.493L421.493,420.737L425.198,417.493L425.493,417.219L429.033,413.493L429.493,412.972L432.265,409.493L433.493,407.819L435.058,405.493L437.493,401.511L437.503,401.493L439.596,397.493L441.441,393.493L441.493,393.369L443.013,389.493L444.376,385.493L445.493,381.662L445.54,381.493L446.51,377.493L447.313,373.493L447.967,369.493L448.494,365.493L448.898,361.493L449.137,357.493L449.163,353.493L448.973,349.493L448.582,345.493L448.002,341.493L447.239,337.493L446.288,333.493L445.493,330.695L445.154,329.493L443.853,325.493L442.364,321.493L441.493,319.413L440.697,317.493L438.851,313.493L437.493,310.842L436.809,309.493L434.583,305.493L433.493,303.702L432.164,301.493L429.551,297.493L429.493,297.409L426.801,293.493L425.493,291.703L423.897,289.493L421.493,286.339L420.856,285.493L417.703,281.493L417.493,281.235L414.466,277.493L413.493,276.334L411.136,273.493L409.493,271.574L407.73,269.493L405.493,266.92L404.264,265.493L401.493,262.344L400.75,261.493L397.493,257.794L397.229,257.493L393.809,253.493L393.493,253.105L390.564,249.493L389.493,248.096L387.495,245.493L385.493,242.724L384.591,241.493L381.84,237.493L381.493,236.948L379.217,233.493L377.493,230.697L376.712,229.493L374.305,225.493L373.493,224.042L371.963,221.493L369.684,217.493L369.493,217.129L367.388,213.493L365.493,210.091L365.119,209.493L362.762,205.493L361.493,203.273L360.296,201.493L357.625,197.493L357.493,197.288L354.356,193.493L353.493,192.474L349.892,189.493L349.493,189.172L345.493,187.192L341.493,186.38L337.493,186.417L333.493,187.092L329.493,188.274L326.486,189.493L325.493,189.849L321.493,191.686L318.146,193.493L317.493,193.811L313.493,196.102L311.349,197.493L309.493,198.596L305.493,201.269L305.193,201.493L301.493,204.056L299.617,205.493L297.493,207.009L294.335,209.493L293.493,210.114L289.493,213.353L289.333,213.493L285.493,216.696L284.603,217.493L281.493,220.156L280.025,221.493L277.493,223.713L275.573,225.493L273.493,227.36L271.247,229.493L269.493,231.115L267.072,233.493L265.493,235.013L263.074,237.493L261.493,239.093L259.267,241.493L257.493,243.392L255.629,245.493L253.493,247.9L252.123,249.493L249.493,252.576L248.721,253.493L245.493,257.429L245.44,257.493L242.315,261.493L241.493,262.632L239.411,265.493L237.493,268.37L236.731,269.493L234.231,273.493L233.493,274.78L231.888,277.493L229.715,281.493L229.493,281.938L227.639,285.493L225.719,289.493L225.493,290.009L223.877,293.493L222.174,297.493L221.493,299.255L220.567,301.493L219.069,305.493L217.717,309.493L217.493,310.262L216.462,313.493L215.376,317.493L214.504,321.493L213.889,325.493L213.588,329.493L213.675,333.493L214.246,337.493L215.436,341.493L217.438,345.493L217.493,345.57L220.29,349.493L221.493,350.733L224.235,353.493L225.493,354.498L229.337,357.493L229.493,357.595L233.493,360.258L235.376,361.493L237.493,362.733L241.493,365.063L242.22,365.493L245.493,367.295L249.493,369.457L249.557,369.493L253.493,371.576L257.214,373.493L257.493,373.632L261.493,375.63L265.413,377.493L265.493,377.53L269.493,379.397L273.493,381.205L274.132,381.493L277.493,383.015L281.493,384.798L283.061,385.493L285.493,386.592L289.493,388.389L291.957,389.493L293.493,390.202L297.493,392.053L300.607,393.493L301.493,393.919L305.493,395.848L308.902,397.493L309.493,397.791L313.493,399.812L316.827,401.493L317.493,401.846L321.493,403.956L324.427,405.493L325.493,406.083L329.493,408.267L331.781,409.493L333.493,410.467L337.493,412.684L339.001,413.493L341.493,414.917L345.493,417.119L346.208,417.493L349.493,419.323L353.493,421.43L353.622,421.493L357.493,423.5L361.493,425.409L361.688,425.493L365.493,427.212L369.493,428.789L371.634,429.493L373.493,430.137L377.493,431.219L381.493,431.987L385.493,432.435L389.493,432.557L393.493,432.352L397.493,431.811L401.493,430.926L405.493,429.689Z"></path><path d="M400.044,417.493L401.493,417.064L405.493,415.493L409.457,413.493L409.493,413.474L413.493,410.926L415.373,409.493L417.493,407.773L419.912,405.493L421.493,403.883L423.562,401.493L425.493,399.042L426.591,397.493L429.139,393.493L429.493,392.872L431.268,389.493L433.094,385.493L433.493,384.494L434.619,381.493L435.899,377.493L436.96,373.493L437.493,371.052L437.82,369.493L438.509,365.493L439.041,361.493L439.375,357.493L439.464,353.493L439.309,349.493L438.932,345.493L438.351,341.493L437.571,337.493L437.493,337.17L436.607,333.493L435.454,329.493L434.114,325.493L433.493,323.858L432.602,321.493L430.915,317.493L429.493,314.465L429.04,313.493L426.997,309.493L425.493,306.811L424.76,305.493L422.349,301.493L421.493,300.173L419.773,297.493L417.493,294.166L417.037,293.493L414.178,289.493L413.493,288.58L411.205,285.493L409.493,283.286L408.119,281.493L405.493,278.204L404.932,277.493L401.659,273.493L401.493,273.295L398.322,269.493L397.493,268.525L394.918,265.493L393.493,263.853L391.455,261.493L389.493,259.246L387.965,257.493L385.493,254.61L384.528,253.493L381.493,249.837L381.201,249.493L377.98,245.493L377.493,244.855L374.83,241.493L373.493,239.719L371.731,237.493L369.493,234.526L368.665,233.493L365.606,229.493L365.493,229.335L362.486,225.493L361.493,224.177L359.24,221.493L357.493,219.356L355.724,217.493L353.493,215.091L351.664,213.493L349.493,211.555L346.411,209.493L345.493,208.867L341.493,206.951L337.493,205.815L334.976,205.493L333.493,205.298L329.493,205.322L328.173,205.493L325.493,205.802L321.493,206.657L317.493,207.862L313.493,209.389L313.272,209.493L309.493,211.123L305.493,213.135L304.879,213.493L301.493,215.33L297.97,217.493L297.493,217.768L293.493,220.372L291.942,221.493L289.493,223.176L286.434,225.493L285.493,226.174L281.493,229.331L281.302,229.493L277.493,232.607L276.479,233.493L273.493,236.026L271.874,237.493L269.493,239.601L267.497,241.493L265.493,243.363L263.363,245.493L261.493,247.35L259.475,249.493L257.493,251.607L255.818,253.493L253.493,256.174L252.383,257.493L249.493,261.12L249.199,261.493L246.27,265.493L245.493,266.657L243.586,269.493L241.493,272.921L241.138,273.493L238.866,277.493L237.493,280.162L236.786,281.493L234.856,285.493L233.493,288.617L233.093,289.493L231.45,293.493L229.98,297.493L229.493,299.004L228.639,301.493L227.447,305.493L226.435,309.493L225.617,313.493L225.493,314.342L224.988,317.493L224.614,321.493L224.549,325.493L224.853,329.493L225.493,332.919L225.599,333.493L226.816,337.493L228.665,341.493L229.493,342.81L231.182,345.493L233.493,348.289L234.492,349.493L237.493,352.404L238.625,353.493L241.493,355.811L243.607,357.493L245.493,358.807L249.429,361.493L249.493,361.532L253.493,364.052L255.86,365.493L257.493,366.438L261.493,368.675L263.026,369.493L265.493,370.777L269.493,372.767L270.999,373.493L273.493,374.687L277.493,376.544L279.59,377.493L281.493,378.361L285.493,380.153L288.547,381.493L289.493,381.916L293.493,383.692L297.493,385.445L297.601,385.493L301.493,387.244L305.493,389.029L306.537,389.493L309.493,390.857L313.493,392.691L315.259,393.493L317.493,394.554L321.493,396.436L323.771,397.493L325.493,398.333L329.493,400.248L332.154,401.493L333.493,402.154L337.493,404.065L340.584,405.493L341.493,405.938L345.493,407.804L349.286,409.493L349.493,409.59L353.493,411.343L357.493,412.973L358.904,413.493L361.493,414.505L365.493,415.898L369.493,417.107L371.067,417.493L373.493,418.12L377.493,418.889L381.493,419.38L385.493,419.576L389.493,419.46L393.493,419.018L397.493,418.227Z"></path><path d="M395.532,405.493L397.493,404.876L401.493,403.2L404.667,401.493L405.493,401.019L409.493,398.222L410.369,397.493L413.493,394.653L414.59,393.493L417.493,390.074L417.929,389.493L420.608,385.493L421.493,383.978L422.81,381.493L424.631,377.493L425.493,375.253L426.122,373.493L427.324,369.493L428.302,365.493L429.069,361.493L429.493,358.23L429.585,357.493L429.809,353.493L429.755,349.493L429.493,346.014L429.453,345.493L428.927,341.493L428.19,337.493L427.249,333.493L426.107,329.493L425.493,327.648L424.78,325.493L423.274,321.493L421.583,317.493L421.493,317.299L419.727,313.493L417.683,309.493L417.493,309.15L415.477,305.493L413.493,302.176L413.088,301.493L410.553,297.493L409.493,295.922L407.875,293.493L405.493,290.11L405.064,289.493L402.149,285.493L401.493,284.63L399.135,281.493L397.493,279.398L396.019,277.493L393.493,274.355L392.807,273.493L389.509,269.493L389.493,269.473L386.144,265.493L385.493,264.739L382.681,261.493L381.493,260.143L379.127,257.493L377.493,255.644L375.54,253.493L373.493,251.164L371.969,249.493L369.493,246.673L368.408,245.493L365.493,242.204L364.825,241.493L361.493,237.818L361.173,237.493L357.493,233.619L357.357,233.493L353.493,229.758L353.169,229.493L349.493,226.384L348.182,225.493L345.493,223.611L341.493,221.502L341.468,221.493L337.493,219.919L333.493,218.922L329.493,218.429L325.493,218.375L321.493,218.712L317.493,219.403L313.493,220.425L310.304,221.493L309.493,221.745L305.493,223.3L301.493,225.142L300.838,225.493L297.493,227.186L293.5,229.493L293.493,229.497L289.493,231.979L287.307,233.493L285.493,234.695L281.672,237.493L281.493,237.619L277.493,240.697L276.534,241.493L273.493,243.956L271.731,245.493L269.493,247.414L267.246,249.493L265.493,251.108L263.091,253.493L261.493,255.107L259.293,257.493L257.493,259.548L255.877,261.493L253.493,264.613L252.837,265.493L250.118,269.493L249.493,270.509L247.653,273.493L245.493,277.394L245.437,277.493L243.401,281.493L241.583,285.493L241.493,285.716L239.912,289.493L238.433,293.493L237.493,296.42L237.13,297.493L235.983,301.493L235.031,305.493L234.281,309.493L233.751,313.493L233.493,317.113L233.463,317.493L233.451,321.493L233.493,322.018L233.761,325.493L234.439,329.493L235.554,333.493L237.193,337.493L237.493,338.048L239.346,341.493L241.493,344.548L242.159,345.493L245.493,349.299L245.664,349.493L249.493,353.111L249.904,353.493L253.493,356.369L254.942,357.493L257.493,359.263L260.891,361.493L261.493,361.861L265.493,364.201L267.845,365.493L269.493,366.371L273.493,368.41L275.714,369.493L277.493,370.353L281.493,372.222L284.316,373.493L285.493,374.026L289.493,375.797L293.436,377.493L293.493,377.517L297.493,379.248L301.493,380.946L302.801,381.493L305.493,382.654L309.493,384.357L312.2,385.493L313.493,386.057L317.493,387.771L321.493,389.461L321.57,389.493L325.493,391.18L329.493,392.864L331.042,393.493L333.493,394.539L337.493,396.179L340.835,397.493L341.493,397.766L345.493,399.322L349.493,400.788L351.591,401.493L353.493,402.17L357.493,403.447L361.493,404.587L365.143,405.493L365.493,405.585L369.493,406.432L373.493,407.071L377.493,407.47L381.493,407.599L385.493,407.433L389.493,406.946L393.493,406.106Z"></path><path d="M392.511,393.493L393.493,393.123L397.493,391.18L400.224,389.493L401.493,388.634L405.3,385.493L405.493,385.315L409.021,381.493L409.493,380.908L411.904,377.493L413.493,374.839L414.216,373.493L416.043,369.493L417.493,365.606L417.532,365.493L418.676,361.493L419.5,357.493L419.968,353.493L420.102,349.493L419.947,345.493L419.536,341.493L418.889,337.493L418.017,333.493L417.493,331.566L416.933,329.493L415.653,325.493L414.185,321.493L413.493,319.82L412.539,317.493L410.717,313.493L409.493,311.051L408.72,309.493L406.556,305.493L405.493,303.678L404.229,301.493L401.746,297.493L401.493,297.108L399.141,293.493L397.493,291.095L396.408,289.493L393.558,285.493L393.493,285.405L390.62,281.493L389.493,280.025L387.573,277.493L385.493,274.865L384.414,273.493L381.493,269.924L381.139,269.493L377.733,265.493L377.493,265.219L374.159,261.493L373.493,260.765L370.41,257.493L369.493,256.518L366.539,253.493L365.493,252.396L362.584,249.493L361.493,248.37L358.489,245.493L357.493,244.51L354.086,241.493L353.493,240.951L349.493,237.8L349.024,237.493L345.493,235.095L342.51,233.493L341.493,232.928L337.493,231.221L333.493,230.025L330.655,229.493L329.493,229.267L325.493,228.906L321.493,228.936L317.493,229.325L316.583,229.493L313.493,230.021L309.493,231.011L305.493,232.298L302.472,233.493L301.493,233.858L297.493,235.642L293.92,237.493L293.493,237.703L289.493,239.968L287.107,241.493L285.493,242.486L281.493,245.231L281.145,245.493L277.493,248.17L275.837,249.493L273.493,251.342L270.981,253.493L269.493,254.779L266.595,257.493L265.493,258.573L262.733,261.493L261.493,262.916L259.395,265.493L257.493,268.074L256.494,269.493L253.958,273.493L253.493,274.312L251.707,277.493L249.714,281.493L249.493,281.993L247.924,285.493L246.35,289.493L245.493,292.011L244.971,293.493L243.778,297.493L242.795,301.493L242.024,305.493L241.493,309.36L241.473,309.493L241.148,313.493L241.093,317.493L241.344,321.493L241.493,322.518L241.921,325.493L242.873,329.493L244.265,333.493L245.493,336.105L246.146,337.493L248.554,341.493L249.493,342.752L251.562,345.493L253.493,347.607L255.263,349.493L257.493,351.518L259.784,353.493L261.493,354.786L265.331,357.493L265.493,357.596L269.493,360.035L272.051,361.493L273.493,362.274L277.493,364.339L279.849,365.493L281.493,366.286L285.493,368.138L288.55,369.493L289.493,369.913L293.493,371.642L297.493,373.315L297.928,373.493L301.493,374.975L305.493,376.597L307.754,377.493L309.493,378.203L313.493,379.798L317.493,381.356L317.854,381.493L321.493,382.921L325.493,384.447L328.333,385.493L329.493,385.94L333.493,387.404L337.493,388.8L339.617,389.493L341.493,390.137L345.493,391.403L349.493,392.565L353.066,393.493L353.493,393.61L357.493,394.531L361.493,395.298L365.493,395.908L369.493,396.341L373.493,396.562L377.493,396.531L381.493,396.211L385.493,395.566L389.493,394.555Z"></path><path d="M378.448,385.493L381.493,384.79L385.493,383.476L389.493,381.692L389.855,381.493L393.493,379.284L395.862,377.493L397.493,376.097L400.048,373.493L401.493,371.775L403.16,369.493L405.493,365.66L405.583,365.493L407.419,361.493L408.786,357.493L409.493,354.323L409.665,353.493L410.106,349.493L410.196,345.493L409.982,341.493L409.496,337.493L409.493,337.474L408.751,333.493L407.777,329.493L406.593,325.493L405.493,322.313L405.212,321.493L403.647,317.493L401.901,313.493L401.493,312.649L399.986,309.493L397.899,305.493L397.493,304.776L395.659,301.493L393.493,297.88L393.264,297.493L390.748,293.493L389.493,291.609L388.106,289.493L385.493,285.714L385.342,285.493L382.471,281.493L381.493,280.195L379.465,277.493L377.493,274.992L376.306,273.493L373.493,270.108L372.974,269.493L369.493,265.547L369.443,265.493L365.67,261.493L365.493,261.31L361.626,257.493L361.493,257.362L357.493,253.669L357.283,253.493L353.493,250.258L352.464,249.493L349.493,247.221L346.804,245.493L345.493,244.625L341.493,242.453L339.243,241.493L337.493,240.721L333.493,239.4L329.493,238.502L325.493,237.99L321.493,237.833L317.493,238.007L313.493,238.496L309.493,239.287L305.493,240.372L302.24,241.493L301.493,241.737L297.493,243.334L293.493,245.219L292.99,245.493L289.493,247.328L285.878,249.493L285.493,249.718L281.493,252.34L279.908,253.493L277.493,255.248L274.682,257.493L273.493,258.479L270.162,261.493L269.493,262.145L266.329,265.493L265.493,266.468L263.083,269.493L261.493,271.718L260.301,273.493L257.911,277.493L257.493,278.284L255.854,281.493L254.067,285.493L253.493,286.977L252.519,289.493L251.201,293.493L250.108,297.493L249.493,300.344L249.236,301.493L248.583,305.493L248.173,309.493L248.022,313.493L248.155,317.493L248.603,321.493L249.405,325.493L249.493,325.793L250.573,329.493L252.181,333.493L253.493,336.006L254.285,337.493L256.941,341.493L257.493,342.182L260.274,345.493L261.493,346.72L264.441,349.493L265.493,350.353L269.493,353.399L269.623,353.493L273.493,355.983L276.008,357.493L277.493,358.317L281.493,360.418L283.659,361.493L285.493,362.371L289.493,364.195L292.477,365.493L293.493,365.933L297.493,367.606L301.493,369.214L302.21,369.493L305.493,370.789L309.493,372.317L312.675,373.493L313.493,373.803L317.493,375.264L321.493,376.673L323.927,377.493L325.493,378.041L329.493,379.365L333.493,380.615L336.52,381.493L337.493,381.789L341.493,382.884L345.493,383.871L349.493,384.731L353.493,385.445L353.856,385.493L357.493,385.997L361.493,386.365L365.493,386.547L369.493,386.525L373.493,386.258L377.493,385.698Z"></path><path d="M363.18,377.493L365.493,377.311L369.493,376.747L373.493,375.869L377.493,374.611L380.172,373.493L381.493,372.88L385.493,370.539L386.947,369.493L389.493,367.389L391.413,365.493L393.493,363.047L394.639,361.493L396.961,357.493L397.493,356.216L398.519,353.493L399.48,349.493L399.973,345.493L400.079,341.493L399.849,337.493L399.323,333.493L398.534,329.493L397.51,325.493L397.493,325.438L396.27,321.493L394.836,317.493L393.493,314.192L393.213,313.493L391.417,309.493L389.493,305.591L389.445,305.493L387.322,301.493L385.493,298.295L385.042,297.493L382.63,293.493L381.493,291.723L380.078,289.493L377.493,285.657L377.383,285.493L374.54,281.493L373.493,280.102L371.521,277.493L369.493,274.962L368.302,273.493L365.493,270.222L364.852,269.493L361.493,265.875L361.122,265.493L357.493,261.955L356.977,261.493L353.493,258.498L352.167,257.493L349.493,255.488L346.368,253.493L345.493,252.925L341.493,250.758L338.573,249.493L337.493,249.012L333.493,247.633L329.493,246.652L325.493,246.036L321.493,245.759L317.493,245.804L313.493,246.156L309.493,246.804L305.493,247.743L301.493,248.97L300.117,249.493L297.493,250.454L293.493,252.21L290.992,253.493L289.493,254.253L285.493,256.586L284.117,257.493L281.493,259.274L278.567,261.493L277.493,262.365L274.001,265.493L273.493,265.992L270.227,269.493L269.493,270.369L267.07,273.493L265.493,275.785L264.395,277.493L262.136,281.493L261.493,282.803L260.239,285.493L258.643,289.493L257.493,292.94L257.312,293.493L256.258,297.493L255.453,301.493L254.9,305.493L254.608,309.493L254.595,313.493L254.883,317.493L255.502,321.493L256.486,325.493L257.493,328.408L257.884,329.493L259.759,333.493L261.493,336.407L262.182,337.493L265.271,341.493L265.493,341.736L269.172,345.493L269.493,345.775L273.493,349.07L274.043,349.493L277.493,351.849L280.079,353.493L281.493,354.309L285.493,356.481L287.474,357.493L289.493,358.46L293.493,360.275L296.318,361.493L297.493,361.986L301.493,363.593L305.493,365.127L306.493,365.493L309.493,366.6L313.493,368.011L317.493,369.358L317.92,369.493L321.493,370.653L325.493,371.879L329.493,373.026L331.283,373.493L333.493,374.091L337.493,375.055L341.493,375.899L345.493,376.608L349.493,377.162L353.082,377.493L353.493,377.532L357.493,377.69L361.493,377.617Z"></path><path d="M356.735,369.493L357.493,369.436L361.493,368.845L365.493,367.936L369.493,366.673L372.345,365.493L373.493,364.955L377.493,362.614L379.05,361.493L381.493,359.361L383.296,357.493L385.493,354.471L386.115,353.493L387.939,349.493L389.084,345.493L389.493,342.846L389.686,341.493L389.85,337.493L389.648,333.493L389.493,332.316L389.128,329.493L388.336,325.493L387.307,321.493L386.061,317.493L385.493,315.945L384.613,313.493L382.976,309.493L381.493,306.246L381.155,305.493L379.164,301.493L377.493,298.408L377.004,297.493L374.682,293.493L373.493,291.587L372.194,289.493L369.532,285.493L369.493,285.436L366.68,281.493L365.493,279.937L363.606,277.493L361.493,274.938L360.256,273.493L357.493,270.474L356.526,269.493L353.493,266.6L352.193,265.493L349.493,263.323L346.861,261.493L345.493,260.583L341.493,258.339L339.648,257.493L337.493,256.517L333.493,255.098L329.493,254.057L326.233,253.493L325.493,253.362L321.493,252.993L317.493,252.949L313.493,253.218L311.577,253.493L309.493,253.783L305.493,254.635L301.493,255.78L297.493,257.221L296.867,257.493L293.493,258.988L289.493,261.083L288.814,261.493L285.493,263.628L282.944,265.493L281.493,266.652L278.314,269.493L277.493,270.307L274.573,273.493L273.493,274.82L271.492,277.493L269.493,280.547L268.916,281.493L266.807,285.493L265.493,288.436L265.048,289.493L263.656,293.493L262.555,297.493L261.746,301.493L261.493,303.475L261.243,305.493L261.041,309.493L261.148,313.493L261.493,316.646L261.591,317.493L262.419,321.493L263.655,325.493L265.341,329.493L265.493,329.778L267.611,333.493L269.493,336.157L270.508,337.493L273.493,340.791L274.178,341.493L277.493,344.426L278.794,345.493L281.493,347.446L284.541,349.493L285.493,350.068L289.493,352.33L291.689,353.493L293.493,354.372L297.493,356.208L300.46,357.493L301.493,357.916L305.493,359.465L309.493,360.929L311.131,361.493L313.493,362.293L317.493,363.562L321.493,364.747L324.233,365.493L325.493,365.842L329.493,366.836L333.493,367.715L337.493,368.463L341.493,369.063L345.491,369.493L345.493,369.493L349.493,369.724L353.493,369.718Z"></path><path d="M354.846,361.493L357.493,360.911L361.493,359.607L365.493,357.829L366.118,357.493L369.493,355.245L371.63,353.493L373.493,351.471L375.049,349.493L377.258,345.493L377.493,344.859L378.617,341.493L379.369,337.493L379.636,333.493L379.503,329.493L379.038,325.493L378.29,321.493L377.493,318.324L377.288,317.493L376.051,313.493L374.599,309.493L373.493,306.841L372.939,305.493L371.079,301.493L369.493,298.41L369.026,297.493L366.779,293.493L365.493,291.39L364.332,289.493L361.673,285.493L361.493,285.242L358.727,281.493L357.493,279.944L355.41,277.493L353.493,275.404L351.552,273.493L349.493,271.608L346.857,269.493L345.493,268.469L341.493,265.908L340.712,265.493L337.493,263.885L333.493,262.301L330.783,261.493L329.493,261.126L325.493,260.342L321.493,259.904L317.493,259.799L313.493,260.017L309.493,260.551L305.493,261.397L305.164,261.493L301.493,262.613L297.493,264.171L294.71,265.493L293.493,266.119L289.493,268.56L288.173,269.493L285.493,271.586L283.347,273.493L281.493,275.345L279.565,277.493L277.493,280.135L276.521,281.493L274.058,285.493L273.493,286.585L272.096,289.493L270.529,293.493L269.493,296.912L269.327,297.493L268.518,301.493L268.043,305.493L267.912,309.493L268.143,313.493L268.759,317.493L269.493,320.357L269.805,321.493L271.358,325.493L273.416,329.493L273.493,329.612L276.165,333.493L277.493,335.087L279.662,337.493L281.493,339.227L284.087,341.493L285.493,342.568L289.493,345.395L289.641,345.493L293.493,347.758L296.665,349.493L297.493,349.905L301.493,351.766L305.468,353.493L305.493,353.502L309.493,355.001L313.493,356.393L316.92,357.493L317.493,357.668L321.493,358.772L325.493,359.761L329.493,360.623L333.493,361.341L334.629,361.493L337.493,361.875L341.493,362.214L345.493,362.335L349.493,362.2L353.493,361.756Z"></path><path d="M351.212,353.493L353.493,352.762L357.493,350.862L359.628,349.493L361.493,347.947L363.896,345.493L365.493,343.228L366.554,341.493L368.207,337.493L369.155,333.493L369.493,330.131L369.552,329.493L369.511,325.493L369.493,325.308L369.11,321.493L368.399,317.493L367.41,313.493L366.166,309.493L365.493,307.701L364.673,305.493L362.943,301.493L361.493,298.529L360.979,297.493L358.751,293.493L357.493,291.451L356.22,289.493L353.493,285.678L353.348,285.493L349.915,281.493L349.493,281.041L345.748,277.493L345.493,277.27L341.493,274.258L340.282,273.493L337.493,271.868L333.493,269.993L332.1,269.493L329.493,268.625L325.493,267.694L321.493,267.155L317.493,266.997L313.493,267.216L309.493,267.805L305.493,268.765L303.308,269.493L301.493,270.155L297.493,272.029L294.942,273.493L293.493,274.424L289.493,277.475L289.473,277.493L285.501,281.493L285.493,281.503L282.487,285.493L281.493,287.071L280.116,289.493L278.281,293.493L277.493,295.753L276.933,297.493L276.048,301.493L275.568,305.493L275.504,309.493L275.871,313.493L276.693,317.493L277.493,319.966L278.03,321.493L279.964,325.493L281.493,327.951L282.54,329.493L285.493,333.046L285.898,333.493L289.493,336.845L290.251,337.493L293.493,339.904L295.818,341.493L297.493,342.509L301.493,344.745L302.952,345.493L305.493,346.673L309.493,348.376L312.379,349.493L313.493,349.89L317.493,351.162L321.493,352.287L325.493,353.252L326.742,353.493L329.493,353.991L333.493,354.518L337.493,354.82L341.493,354.859L345.493,354.589L349.493,353.947Z"></path><path d="M343.546,345.493L345.493,344.936L349.493,343.093L351.855,341.493L353.493,340.006L355.577,337.493L357.493,334.047L357.747,333.493L358.913,329.493L359.465,325.493L359.526,321.493L359.177,317.493L358.473,313.493L357.493,309.663L357.447,309.493L356.036,305.493L354.337,301.493L353.493,299.8L352.245,297.493L349.773,293.493L349.493,293.092L346.686,289.493L345.493,288.121L342.881,285.493L341.493,284.235L337.924,281.493L337.493,281.193L333.493,278.932L330.194,277.493L329.493,277.215L325.493,276.1L321.493,275.448L317.493,275.258L313.493,275.529L309.493,276.262L305.493,277.46L305.415,277.493L301.493,279.343L297.954,281.493L297.493,281.819L293.493,285.272L293.276,285.493L289.998,289.493L289.493,290.264L287.644,293.493L285.925,297.493L285.493,298.995L284.848,301.493L284.322,305.493L284.311,309.493L284.828,313.493L285.493,316.003L285.929,317.493L287.707,321.493L289.493,324.474L290.168,325.493L293.488,329.493L293.493,329.497L297.493,333.13L297.935,333.493L301.493,336.005L303.83,337.493L305.493,338.426L309.493,340.436L311.87,341.493L313.493,342.143L317.493,343.522L321.493,344.684L325.002,345.493L325.493,345.596L329.493,346.177L333.493,346.471L337.493,346.424L341.493,345.967Z"></path><path d="M340.117,333.493L341.493,332.655L344.806,329.493L345.493,328.464L346.949,325.493L347.959,321.493L348.198,317.493L347.811,313.493L346.894,309.493L345.513,305.493L345.493,305.448L343.413,301.493L341.493,298.493L340.746,297.493L337.493,293.832L337.126,293.493L333.493,290.614L331.675,289.493L329.493,288.323L325.493,286.818L321.493,285.961L317.493,285.777L313.493,286.292L309.493,287.526L305.508,289.493L305.493,289.502L301.493,292.865L300.905,293.493L298.101,297.493L297.493,298.8L296.445,301.493L295.657,305.493L295.63,309.493L296.356,313.493L297.493,316.576L297.878,317.493L300.389,321.493L301.493,322.824L304.018,325.493L305.493,326.757L309.16,329.493L309.493,329.702L313.493,331.829L317.262,333.493L317.493,333.581L321.493,334.732L325.493,335.499L329.493,335.816L333.493,335.582L337.493,334.654Z"></path></g>
</svg>
